<svg xmlns="http://www.w3.org/2000/svg" width="1200" height="1117" viewBox="0 0 1200 1117" version="1.1"><path d="M 0 558.501 L 0 1117.002 600.250 1116.751 L 1200.500 1116.500 1200.751 558.250 L 1201.002 0 600.501 0 L 0 0 0 558.501 M 0.496 559 C 0.496 866.175, 0.611 991.837, 0.750 838.250 C 0.889 684.662, 0.889 433.337, 0.750 279.750 C 0.611 126.162, 0.496 251.825, 0.496 559 M 100.513 73.743 C 98.320 73.966, 96.190 74.678, 95.778 75.324 C 94.837 76.805, 94.866 967.099, 95.808 972.399 L 96.501 976.298 100.736 970.260 C 103.066 966.940, 108.270 957.985, 112.301 950.361 C 116.332 942.738, 128.662 919.850, 139.700 899.500 C 150.739 879.150, 202.287 783.750, 254.252 687.500 C 306.217 591.250, 395.885 425.200, 453.514 318.500 C 511.144 211.800, 561.439 118.425, 565.280 111 C 572.497 97.049, 582.016 81, 583.072 81 C 584.017 81, 617.101 141.781, 717.247 327.500 C 751.057 390.200, 808.994 497.525, 845.995 566 C 882.996 634.475, 937.784 735.950, 967.745 791.500 C 997.706 847.050, 1027.963 903.075, 1034.982 916 C 1042.001 928.925, 1055.730 954.350, 1065.491 972.500 C 1086.329 1011.247, 1105.672 1045.894, 1107.621 1047.964 C 1108.793 1049.209, 1108.999 1024.027, 1108.996 879.964 C 1108.991 688.943, 1109.510 702.251, 1101.084 676.983 C 1095.159 659.214, 1088.192 643.650, 1074.458 617.500 C 1037.100 546.368, 1027.049 522.356, 1020.880 489.500 C 1017.913 473.696, 1017.232 447.064, 1019.415 432.235 C 1023.860 402.040, 1032.582 384.886, 1064.531 343.500 C 1082.500 320.222, 1089.685 309.581, 1096.235 296.542 C 1108.314 272.497, 1109.155 266.954, 1109.032 212.187 C 1108.979 188.365, 1108.505 165.480, 1107.979 161.333 C 1102.997 122.041, 1072.125 87.273, 1033.524 77.481 C 1028.456 76.195, 1019.177 74.663, 1012.904 74.075 C 1004.982 73.333, 864.546 73.057, 553 73.172 C 306.325 73.262, 102.706 73.519, 100.513 73.743 M 574.371 332.777 C 568.799 343.075, 553.781 371.075, 540.996 395 C 528.211 418.925, 513.370 446.600, 508.015 456.500 C 502.661 466.400, 494.092 482.375, 488.973 492 C 483.854 501.625, 469.681 527.950, 457.477 550.500 C 445.273 573.050, 430.433 600.725, 424.498 612 C 418.564 623.275, 408.344 642.291, 401.788 654.257 C 388.834 677.902, 383.522 688.855, 384.524 689.858 C 384.877 690.211, 449.452 690.621, 528.024 690.770 L 670.881 691.040 674.574 684.770 C 678.904 677.417, 706.368 626.770, 720.792 599.535 L 730.837 580.570 721.483 562.035 C 716.339 551.841, 710.141 540.416, 707.710 536.646 L 703.291 529.791 697.249 540.646 C 693.926 546.616, 684.825 563.425, 677.024 578 C 669.222 592.575, 658.713 612.045, 653.670 621.266 C 644.667 637.726, 644.468 637.993, 642.763 635.921 C 641.808 634.760, 640.532 631.975, 639.927 629.730 C 638.889 625.875, 639.079 625.150, 643.364 616.575 C 645.859 611.584, 655.391 593.775, 664.546 577 C 673.702 560.225, 684.795 539.624, 689.198 531.219 L 697.204 515.938 689.203 501.219 C 677.471 479.637, 676.549 478.016, 676 478.019 C 675.389 478.022, 668.825 490, 646.970 531 C 637.735 548.325, 627.010 568.116, 623.136 574.980 L 616.093 587.460 613.444 581.480 L 610.795 575.500 617.015 563 C 620.436 556.125, 630.103 537.900, 638.498 522.500 C 646.893 507.100, 657.143 487.738, 661.275 479.472 L 668.790 464.445 662.995 452.906 C 656.472 439.916, 649.895 428.795, 648.458 428.326 C 647.931 428.154, 646.789 429.248, 645.920 430.757 C 645.051 432.266, 641.828 437.835, 638.758 443.133 C 635.688 448.430, 627.450 463.730, 620.451 477.133 C 606.821 503.230, 597.419 520.196, 591.357 529.630 L 587.585 535.500 585.703 529.240 L 583.821 522.981 586.797 516.619 C 588.435 513.120, 599.678 491.862, 611.784 469.379 C 623.889 446.896, 635.523 424.993, 637.637 420.706 L 641.482 412.913 635.301 400.704 C 629.278 388.805, 621.701 377, 620.088 377 C 619.196 377, 605.288 401.972, 587.507 435.500 C 571.722 465.264, 561.808 483, 560.954 483 C 560.133 483, 556 473.730, 556 471.888 C 556 470.608, 574.154 436.173, 597.728 392.740 C 605.119 379.121, 611.605 366.393, 612.140 364.454 C 613.331 360.140, 612.097 357.234, 598.247 331.750 C 590.546 317.579, 588.188 314.006, 586.550 314.027 C 584.926 314.049, 582.396 317.943, 574.371 332.777 M 342.293 776.695 L 336.086 777.093 331.151 786.297 C 328.436 791.358, 305.520 833.975, 280.226 881 C 230.440 973.557, 200 1030.706, 200 1031.618 C 200 1033.205, 297.391 1025.569, 336 1020.955 C 391.749 1014.292, 431.663 1003.745, 465.524 986.727 C 514.498 962.114, 549.432 920.840, 596.482 832 C 601.289 822.925, 608.111 810.247, 611.644 803.828 C 617.983 792.309, 623.667 778.334, 622.492 777.159 C 621.830 776.497, 352.328 776.050, 342.293 776.695 M 763.500 807.656 C 744.537 809.907, 725.498 817.506, 710 829.009 C 701.720 835.154, 688.523 848.747, 683.309 856.500 C 667.514 879.987, 660.735 911.017, 665.469 938.164 C 669.679 962.305, 680.850 982.980, 699.203 1000.600 C 721.492 1021.998, 746.414 1032, 777.441 1032 C 853.582 1032, 907.340 956.491, 882.975 883.767 C 867.421 837.341, 823.396 806.238, 774.526 807.150 C 770.112 807.232, 765.150 807.460, 763.500 807.656" stroke="none" fill="#feffff" fill-rule="evenodd"/><path d="M 100.513 73.743 C 98.320 73.966, 96.190 74.678, 95.778 75.324 C 94.837 76.805, 94.866 967.099, 95.808 972.399 L 96.501 976.298 100.736 970.260 C 103.066 966.940, 108.270 957.985, 112.301 950.361 C 116.332 942.738, 128.662 919.850, 139.700 899.500 C 150.739 879.150, 202.287 783.750, 254.252 687.500 C 306.217 591.250, 395.885 425.200, 453.514 318.500 C 511.144 211.800, 561.439 118.425, 565.280 111 C 572.497 97.049, 582.016 81, 583.072 81 C 584.017 81, 617.101 141.781, 717.247 327.500 C 751.057 390.200, 808.994 497.525, 845.995 566 C 882.996 634.475, 937.784 735.950, 967.745 791.500 C 997.706 847.050, 1027.963 903.075, 1034.982 916 C 1042.001 928.925, 1055.730 954.350, 1065.491 972.500 C 1086.329 1011.247, 1105.672 1045.894, 1107.621 1047.964 C 1108.793 1049.209, 1108.999 1024.027, 1108.996 879.964 C 1108.991 688.943, 1109.510 702.251, 1101.084 676.983 C 1095.159 659.214, 1088.192 643.650, 1074.458 617.500 C 1037.100 546.368, 1027.049 522.356, 1020.880 489.500 C 1017.913 473.696, 1017.232 447.064, 1019.415 432.235 C 1023.860 402.040, 1032.582 384.886, 1064.531 343.500 C 1082.500 320.222, 1089.685 309.581, 1096.235 296.542 C 1108.314 272.497, 1109.155 266.954, 1109.032 212.187 C 1108.979 188.365, 1108.505 165.480, 1107.979 161.333 C 1102.997 122.041, 1072.125 87.273, 1033.524 77.481 C 1028.456 76.195, 1019.177 74.663, 1012.904 74.075 C 1004.982 73.333, 864.546 73.057, 553 73.172 C 306.325 73.262, 102.706 73.519, 100.513 73.743 M 574.371 332.777 C 568.799 343.075, 553.781 371.075, 540.996 395 C 528.211 418.925, 513.370 446.600, 508.015 456.500 C 502.661 466.400, 494.092 482.375, 488.973 492 C 483.854 501.625, 469.681 527.950, 457.477 550.500 C 445.273 573.050, 430.433 600.725, 424.498 612 C 418.564 623.275, 408.344 642.291, 401.788 654.257 C 388.834 677.902, 383.522 688.855, 384.524 689.858 C 384.877 690.211, 449.452 690.621, 528.024 690.770 L 670.881 691.040 674.574 684.770 C 678.904 677.417, 706.368 626.770, 720.792 599.535 L 730.837 580.570 721.483 562.035 C 716.339 551.841, 710.141 540.416, 707.710 536.646 L 703.291 529.791 697.249 540.646 C 693.926 546.616, 684.825 563.425, 677.024 578 C 669.222 592.575, 658.713 612.045, 653.670 621.266 C 644.667 637.726, 644.468 637.993, 642.763 635.921 C 641.808 634.760, 640.532 631.975, 639.927 629.730 C 638.889 625.875, 639.079 625.150, 643.364 616.575 C 645.859 611.584, 655.391 593.775, 664.546 577 C 673.702 560.225, 684.795 539.624, 689.198 531.219 L 697.204 515.938 689.203 501.219 C 677.471 479.637, 676.549 478.016, 676 478.019 C 675.389 478.022, 668.825 490, 646.970 531 C 637.735 548.325, 627.010 568.116, 623.136 574.980 L 616.093 587.460 613.444 581.480 L 610.795 575.500 617.015 563 C 620.436 556.125, 630.103 537.900, 638.498 522.500 C 646.893 507.100, 657.143 487.738, 661.275 479.472 L 668.790 464.445 662.995 452.906 C 656.472 439.916, 649.895 428.795, 648.458 428.326 C 647.931 428.154, 646.789 429.248, 645.920 430.757 C 645.051 432.266, 641.828 437.835, 638.758 443.133 C 635.688 448.430, 627.450 463.730, 620.451 477.133 C 606.821 503.230, 597.419 520.196, 591.357 529.630 L 587.585 535.500 585.703 529.240 L 583.821 522.981 586.797 516.619 C 588.435 513.120, 599.678 491.862, 611.784 469.379 C 623.889 446.896, 635.523 424.993, 637.637 420.706 L 641.482 412.913 635.301 400.704 C 629.278 388.805, 621.701 377, 620.088 377 C 619.196 377, 605.288 401.972, 587.507 435.500 C 571.722 465.264, 561.808 483, 560.954 483 C 560.133 483, 556 473.730, 556 471.888 C 556 470.608, 574.154 436.173, 597.728 392.740 C 605.119 379.121, 611.605 366.393, 612.140 364.454 C 613.331 360.140, 612.097 357.234, 598.247 331.750 C 590.546 317.579, 588.188 314.006, 586.550 314.027 C 584.926 314.049, 582.396 317.943, 574.371 332.777 M 342.293 776.695 L 336.086 777.093 331.151 786.297 C 328.436 791.358, 305.520 833.975, 280.226 881 C 230.440 973.557, 200 1030.706, 200 1031.618 C 200 1033.205, 297.391 1025.569, 336 1020.955 C 391.749 1014.292, 431.663 1003.745, 465.524 986.727 C 514.498 962.114, 549.432 920.840, 596.482 832 C 601.289 822.925, 608.111 810.247, 611.644 803.828 C 617.983 792.309, 623.667 778.334, 622.492 777.159 C 621.830 776.497, 352.328 776.050, 342.293 776.695 M 763.500 807.656 C 744.537 809.907, 725.498 817.506, 710 829.009 C 701.720 835.154, 688.523 848.747, 683.309 856.500 C 667.514 879.987, 660.735 911.017, 665.469 938.164 C 669.679 962.305, 680.850 982.980, 699.203 1000.600 C 721.492 1021.998, 746.414 1032, 777.441 1032 C 853.582 1032, 907.340 956.491, 882.975 883.767 C 867.421 837.341, 823.396 806.238, 774.526 807.150 C 770.112 807.232, 765.150 807.460, 763.500 807.656" stroke="none" fill="#ae1325" fill-rule="evenodd"/></svg>