<svg xmlns="http://www.w3.org/2000/svg" xmlns:xlink="http://www.w3.org/1999/xlink" width="150" zoomAndPan="magnify" viewBox="0 0 112.5 38.999999" height="52" preserveAspectRatio="xMidYMid meet" version="1.0"><defs><clipPath id="000ac15fb9"><path d="M 2 29 L 5 29 L 5 32.195312 L 2 32.195312 Z M 2 29 " clip-rule="nonzero"/></clipPath><clipPath id="2f0fb3f82c"><path d="M 0 6.804688 L 6 6.804688 L 6 13 L 0 13 Z M 0 6.804688 " clip-rule="nonzero"/></clipPath><clipPath id="12a4703082"><path d="M 110 23 L 112.003906 23 L 112.003906 29 L 110 29 Z M 110 23 " clip-rule="nonzero"/></clipPath></defs><g clip-path="url(#000ac15fb9)"><path fill="#aa1c20" d="M 2.679688 31.492188 L 2.679688 30.125 C 2.691406 30.042969 2.691406 29.960938 2.679688 29.878906 C 2.671875 29.820312 2.65625 29.765625 2.628906 29.714844 C 2.589844 29.65625 2.546875 29.601562 2.5 29.550781 L 3.210938 29.550781 L 4.261719 31.007812 L 4.261719 30.027344 C 4.273438 29.945312 4.273438 29.859375 4.261719 29.773438 C 4.246094 29.691406 4.207031 29.617188 4.144531 29.558594 L 4.800781 29.558594 C 4.6875 29.675781 4.636719 29.8125 4.644531 29.976562 L 4.644531 32.007812 C 4.574219 32.003906 4.507812 31.984375 4.441406 31.953125 C 4.339844 31.917969 4.242188 31.867188 4.152344 31.804688 C 4.050781 31.742188 3.964844 31.660156 3.898438 31.558594 L 3.152344 30.445312 L 3.152344 31.492188 C 3.140625 31.65625 3.191406 31.796875 3.300781 31.917969 L 2.523438 31.917969 C 2.644531 31.800781 2.695312 31.660156 2.679688 31.492188 " fill-opacity="1" fill-rule="nonzero"/></g><path fill="#aa1c20" d="M 0 29.550781 L 1.113281 29.550781 C 1.289062 29.550781 1.457031 29.578125 1.621094 29.640625 C 1.765625 29.6875 1.894531 29.765625 2.007812 29.871094 C 2.125 29.980469 2.210938 30.105469 2.269531 30.253906 C 2.300781 30.328125 2.324219 30.40625 2.34375 30.484375 C 2.394531 30.777344 2.359375 31.0625 2.238281 31.335938 C 2.152344 31.53125 2.015625 31.683594 1.828125 31.789062 C 1.597656 31.925781 1.347656 31.984375 1.082031 31.96875 L 0 31.96875 C 0.0664062 31.9375 0.113281 31.882812 0.132812 31.8125 C 0.144531 31.707031 0.144531 31.605469 0.132812 31.5 L 0.132812 29.929688 C 0.132812 29.746094 0.0820312 29.628906 -0.0234375 29.574219 Z M 0.835938 31.574219 L 1.058594 31.609375 C 1.25 31.617188 1.394531 31.539062 1.492188 31.378906 C 1.613281 31.191406 1.667969 30.984375 1.65625 30.761719 C 1.667969 30.671875 1.667969 30.582031 1.65625 30.492188 C 1.644531 30.417969 1.625 30.351562 1.597656 30.28125 C 1.550781 30.171875 1.480469 30.082031 1.382812 30.011719 C 1.289062 29.960938 1.1875 29.9375 1.082031 29.9375 C 1.007812 29.929688 0.933594 29.929688 0.859375 29.9375 Z M 0.835938 31.574219 " fill-opacity="1" fill-rule="nonzero"/><path fill="#aa1c20" d="M 5.539062 31.507812 L 5.539062 29.96875 C 5.480469 29.957031 5.421875 29.957031 5.359375 29.96875 C 5.285156 29.96875 5.214844 29.980469 5.144531 30.003906 L 4.914062 30.125 L 5.0625 29.566406 L 6.839844 29.566406 L 6.71875 30.125 C 6.644531 30 6.53125 29.945312 6.382812 29.96875 C 6.332031 29.960938 6.28125 29.960938 6.226562 29.96875 L 6.226562 31.507812 C 6.210938 31.683594 6.269531 31.832031 6.398438 31.953125 L 5.390625 31.953125 C 5.449219 31.921875 5.488281 31.875 5.511719 31.8125 C 5.523438 31.734375 5.523438 31.660156 5.511719 31.582031 Z M 5.539062 31.507812 " fill-opacity="1" fill-rule="nonzero"/><path fill="#aa1c20" d="M 7.046875 31.304688 L 7.046875 30.011719 C 7.058594 29.917969 7.058594 29.820312 7.046875 29.722656 C 7.019531 29.65625 6.976562 29.601562 6.914062 29.566406 L 7.890625 29.566406 C 7.835938 29.601562 7.792969 29.652344 7.765625 29.714844 C 7.75 29.808594 7.75 29.902344 7.765625 30 L 7.765625 31.199219 C 7.761719 31.300781 7.789062 31.398438 7.839844 31.484375 C 7.902344 31.570312 7.988281 31.613281 8.09375 31.605469 C 8.191406 31.613281 8.269531 31.578125 8.332031 31.507812 C 8.386719 31.445312 8.417969 31.371094 8.429688 31.289062 C 8.429688 31.289062 8.429688 31.207031 8.429688 31.15625 L 8.429688 29.992188 C 8.441406 29.902344 8.441406 29.816406 8.429688 29.730469 C 8.40625 29.65625 8.363281 29.597656 8.296875 29.558594 L 9.273438 29.558594 C 9.214844 29.597656 9.171875 29.652344 9.148438 29.722656 C 9.132812 29.796875 9.132812 29.871094 9.148438 29.945312 L 9.148438 31.617188 C 9.132812 31.753906 9.183594 31.863281 9.296875 31.941406 L 8.476562 31.941406 L 8.476562 31.648438 C 8.398438 31.769531 8.292969 31.859375 8.160156 31.917969 C 8.042969 31.964844 7.921875 31.988281 7.796875 31.992188 L 7.660156 31.992188 L 7.511719 31.941406 C 7.402344 31.894531 7.316406 31.820312 7.25 31.722656 C 7.160156 31.59375 7.121094 31.449219 7.128906 31.289062 " fill-opacity="1" fill-rule="nonzero"/><g clip-path="url(#2f0fb3f82c)"><path fill="#aa1f24" d="M 4.308594 8.128906 L 5.695312 7.515625 C 5.863281 7.4375 5.910156 7.3125 5.839844 7.140625 C 5.8125 7.070312 5.761719 7.015625 5.691406 6.984375 C 5.617188 6.953125 5.546875 6.949219 5.472656 6.976562 L 0.1875 9.351562 C 0.113281 9.382812 0.0664062 9.433594 0.0351562 9.503906 C 0.0078125 9.578125 0.0117188 9.648438 0.0429688 9.71875 C 0.0742188 9.789062 0.125 9.839844 0.195312 9.867188 C 0.269531 9.898438 0.339844 9.894531 0.410156 9.859375 L 1.738281 9.269531 C 1.597656 9.546875 1.515625 9.839844 1.496094 10.152344 C 1.476562 10.460938 1.519531 10.761719 1.625 11.054688 C 1.730469 11.347656 1.890625 11.605469 2.105469 11.832031 C 2.320312 12.058594 2.570312 12.230469 2.855469 12.355469 C 3.140625 12.476562 3.441406 12.535156 3.75 12.53125 C 4.0625 12.53125 4.359375 12.464844 4.644531 12.339844 C 4.925781 12.214844 5.175781 12.035156 5.382812 11.804688 C 5.59375 11.578125 5.75 11.316406 5.851562 11.019531 C 5.953125 10.726562 5.992188 10.425781 5.964844 10.117188 C 5.941406 9.804688 5.855469 9.511719 5.710938 9.238281 C 5.5625 8.964844 5.367188 8.730469 5.125 8.539062 C 4.882812 8.34375 4.609375 8.207031 4.308594 8.128906 " fill-opacity="1" fill-rule="nonzero"/></g><path fill="#1b75ba" d="M 3.671875 14.90625 C 3.671875 15.089844 3.640625 15.261719 3.570312 15.429688 C 3.5 15.59375 3.402344 15.742188 3.277344 15.867188 C 3.148438 15.996094 3 16.09375 2.835938 16.164062 C 2.667969 16.230469 2.496094 16.265625 2.316406 16.265625 C 2.132812 16.265625 1.960938 16.230469 1.792969 16.164062 C 1.628906 16.09375 1.480469 15.996094 1.355469 15.867188 C 1.226562 15.742188 1.128906 15.59375 1.058594 15.429688 C 0.988281 15.261719 0.957031 15.089844 0.957031 14.90625 C 0.957031 14.726562 0.988281 14.554688 1.058594 14.386719 C 1.128906 14.222656 1.226562 14.074219 1.355469 13.945312 C 1.480469 13.820312 1.628906 13.722656 1.792969 13.652344 C 1.960938 13.582031 2.132812 13.550781 2.316406 13.550781 C 2.496094 13.546875 2.667969 13.582031 2.835938 13.648438 C 3.003906 13.71875 3.148438 13.816406 3.277344 13.945312 C 3.40625 14.074219 3.503906 14.21875 3.570312 14.386719 C 3.640625 14.554688 3.675781 14.726562 3.671875 14.90625 " fill-opacity="1" fill-rule="nonzero"/><path fill="#1b75ba" d="M 2.097656 19.289062 C 2.097656 19.546875 2.007812 19.761719 1.828125 19.941406 C 1.648438 20.121094 1.429688 20.210938 1.175781 20.210938 C 0.921875 20.207031 0.707031 20.117188 0.527344 19.9375 C 0.347656 19.757812 0.261719 19.539062 0.261719 19.285156 C 0.261719 19.03125 0.355469 18.816406 0.535156 18.636719 C 0.714844 18.457031 0.933594 18.371094 1.1875 18.371094 C 1.441406 18.371094 1.65625 18.460938 1.835938 18.640625 C 2.011719 18.820312 2.101562 19.039062 2.097656 19.289062 " fill-opacity="1" fill-rule="nonzero"/><path fill="#aa1f24" d="M 7.191406 25.363281 C 7.191406 25.25 7.191406 25.136719 7.191406 25.019531 C 7.191406 20.664062 4.59375 17.058594 1.21875 16.328125 L 1.128906 16.328125 C 1.03125 16.476562 1.089844 16.558594 1.1875 16.765625 C 1.402344 17.246094 1.546875 17.589844 1.671875 17.855469 C 1.9375 17.953125 2.15625 18.109375 2.332031 18.332031 C 2.503906 18.554688 2.605469 18.804688 2.632812 19.085938 C 2.660156 19.367188 2.613281 19.632812 2.484375 19.882812 C 2.359375 20.136719 2.175781 20.332031 1.933594 20.476562 C 2.785156 20.972656 3.453125 21.652344 3.925781 22.515625 C 4.378906 23.285156 4.664062 24.113281 4.785156 24.996094 C 4.785156 24.996094 4.785156 25.03125 4.785156 25.046875 C 4.785156 25.0625 4.785156 25.242188 4.824219 25.339844 C 4.824219 25.644531 4.875 25.957031 4.875 26.28125 C 4.882812 27.15625 4.753906 28.007812 4.480469 28.839844 L 6.472656 28.839844 C 6.726562 28.214844 6.910156 27.570312 7.035156 26.90625 C 7.097656 26.464844 7.152344 25.949219 7.191406 25.363281 M 1.964844 12.453125 C 1.960938 12.695312 2.015625 12.925781 2.136719 13.136719 C 2.246094 13.113281 2.359375 13.101562 2.472656 13.101562 C 2.847656 13.101562 3.191406 13.210938 3.5 13.429688 C 3.808594 13.644531 4.023438 13.933594 4.148438 14.285156 C 4.277344 14.640625 4.289062 15 4.1875 15.363281 C 4.085938 15.726562 3.890625 16.027344 3.597656 16.265625 C 3.550781 16.3125 3.496094 16.347656 3.433594 16.378906 C 3.390625 16.410156 3.34375 16.4375 3.292969 16.460938 L 3.195312 16.511719 C 5.519531 17.664062 7.25 20.246094 7.675781 23.390625 L 7.675781 23.5625 C 7.734375 24.003906 7.769531 24.449219 7.773438 24.898438 C 7.773438 26.261719 7.523438 27.574219 7.027344 28.839844 L 9.109375 28.839844 C 13.03125 18.738281 6.71875 12.699219 2 12.453125 M 0.375 20.558594 C 0.34375 20.578125 0.328125 20.601562 0.320312 20.636719 C 1.300781 21.789062 1.765625 23.125 1.71875 24.636719 C 1.742188 25.421875 1.609375 26.179688 1.324219 26.90625 C 1.035156 27.636719 0.617188 28.28125 0.0664062 28.839844 L 3.898438 28.839844 C 4.171875 28.03125 4.304688 27.199219 4.300781 26.347656 C 4.300781 23.21875 2.5625 20.671875 0.375 20.558594 " fill-opacity="1" fill-rule="nonzero"/><path fill="#aa1f24" d="M 19.785156 12.445312 L 19.503906 13.480469 C 19.433594 13.332031 19.316406 13.238281 19.160156 13.191406 C 18.996094 13.160156 18.832031 13.148438 18.667969 13.152344 L 18.441406 13.152344 C 18.3125 13.160156 18.183594 13.160156 18.054688 13.152344 L 17.921875 13.152344 L 17.921875 17.191406 C 17.910156 17.40625 17.9375 17.617188 18.011719 17.820312 C 18.097656 17.988281 18.222656 18.117188 18.382812 18.214844 L 16.671875 18.214844 C 16.871094 18.113281 16.988281 17.953125 17.023438 17.730469 C 17.054688 17.523438 17.066406 17.3125 17.0625 17.101562 L 17.0625 13.175781 C 16.890625 13.175781 16.660156 13.175781 16.359375 13.175781 C 16.160156 13.171875 15.960938 13.183594 15.761719 13.21875 C 15.566406 13.28125 15.386719 13.375 15.226562 13.503906 L 15.546875 12.464844 C 15.691406 12.503906 15.84375 12.523438 15.992188 12.519531 L 19.273438 12.519531 C 19.382812 12.523438 19.496094 12.523438 19.609375 12.519531 L 19.785156 12.519531 " fill-opacity="1" fill-rule="nonzero"/><path fill="#aa1f24" d="M 25.304688 18.238281 L 24.507812 18.28125 C 24.273438 18.292969 24.058594 18.234375 23.863281 18.109375 C 23.59375 17.917969 23.355469 17.691406 23.148438 17.433594 C 22.585938 16.75 22.089844 16.027344 21.652344 15.257812 C 22.625 15.09375 23.148438 14.675781 23.148438 14.011719 C 23.15625 13.734375 23.058594 13.503906 22.855469 13.316406 C 22.640625 13.136719 22.390625 13.046875 22.109375 13.054688 C 21.90625 13.054688 21.703125 13.078125 21.503906 13.117188 L 21.503906 17.125 C 21.488281 17.335938 21.488281 17.542969 21.503906 17.753906 C 21.542969 17.972656 21.660156 18.136719 21.863281 18.238281 L 20.160156 18.238281 C 20.359375 18.132812 20.476562 17.972656 20.519531 17.753906 C 20.535156 17.542969 20.535156 17.335938 20.519531 17.125 L 20.519531 13.617188 C 20.535156 13.40625 20.535156 13.199219 20.519531 12.988281 C 20.472656 12.769531 20.351562 12.605469 20.160156 12.496094 L 22.199219 12.496094 C 22.667969 12.46875 23.097656 12.582031 23.492188 12.839844 C 23.878906 13.105469 24.070312 13.472656 24.066406 13.945312 C 24.0625 14.304688 23.929688 14.613281 23.667969 14.863281 C 23.386719 15.15625 23.050781 15.347656 22.65625 15.4375 C 23.136719 16.109375 23.65625 16.746094 24.214844 17.355469 C 24.535156 17.707031 24.898438 18.003906 25.3125 18.238281 " fill-opacity="1" fill-rule="nonzero"/><path fill="#aa1f24" d="M 30.480469 18.238281 L 29.253906 18.238281 L 29.253906 17.632812 C 28.800781 18.160156 28.226562 18.410156 27.53125 18.378906 C 27.101562 18.390625 26.699219 18.285156 26.328125 18.074219 C 25.953125 17.859375 25.703125 17.542969 25.582031 17.125 C 25.511719 16.804688 25.484375 16.476562 25.5 16.148438 L 25.5 13.617188 C 25.519531 13.40625 25.519531 13.199219 25.5 12.988281 C 25.464844 12.765625 25.347656 12.601562 25.148438 12.496094 L 26.796875 12.496094 C 26.605469 12.605469 26.484375 12.769531 26.441406 12.988281 C 26.421875 13.199219 26.421875 13.40625 26.441406 13.617188 L 26.441406 16.148438 C 26.410156 16.554688 26.511719 16.925781 26.746094 17.261719 C 27.035156 17.601562 27.402344 17.765625 27.851562 17.746094 C 28.386719 17.765625 28.808594 17.558594 29.121094 17.125 C 29.242188 16.914062 29.296875 16.6875 29.285156 16.445312 L 29.285156 13.617188 C 29.300781 13.40625 29.300781 13.199219 29.285156 12.988281 C 29.238281 12.769531 29.121094 12.605469 28.925781 12.496094 L 30.578125 12.496094 C 30.386719 12.609375 30.269531 12.773438 30.226562 12.988281 C 30.195312 13.195312 30.183594 13.40625 30.1875 13.617188 L 30.1875 17.125 C 30.183594 17.335938 30.195312 17.542969 30.226562 17.753906 C 30.273438 17.964844 30.390625 18.128906 30.578125 18.238281 " fill-opacity="1" fill-rule="nonzero"/><path fill="#aa1f24" d="M 33.921875 10.832031 L 35.101562 12.003906 L 34.488281 12.003906 L 33.421875 11.308594 Z M 33.921875 10.832031 " fill-opacity="1" fill-rule="nonzero"/><path fill="#aa1f24" d="M 30.726562 12.324219 C 30.671875 12.472656 30.589844 12.605469 30.480469 12.71875 C 30.375 12.835938 30.257812 12.9375 30.128906 13.027344 L 29.925781 12.847656 C 29.992188 12.78125 30.046875 12.707031 30.082031 12.625 C 30.125 12.535156 30.144531 12.441406 30.152344 12.347656 C 30.160156 12.242188 30.140625 12.148438 30.089844 12.054688 C 30.039062 11.941406 29.964844 11.839844 29.867188 11.757812 L 30.449219 11.390625 C 30.601562 11.523438 30.707031 11.683594 30.761719 11.875 C 30.804688 12.027344 30.804688 12.175781 30.761719 12.324219 " fill-opacity="1" fill-rule="nonzero"/><path fill="#aa1f24" d="M 36.878906 12.324219 C 36.828125 12.476562 36.742188 12.605469 36.632812 12.71875 C 36.527344 12.835938 36.410156 12.9375 36.28125 13.027344 L 36.085938 12.847656 C 36.148438 12.78125 36.199219 12.707031 36.238281 12.625 C 36.28125 12.535156 36.304688 12.445312 36.304688 12.347656 C 36.3125 12.242188 36.292969 12.148438 36.242188 12.054688 C 36.1875 11.941406 36.109375 11.839844 36.011719 11.757812 L 36.585938 11.390625 C 36.738281 11.523438 36.84375 11.683594 36.902344 11.875 C 36.941406 12.027344 36.941406 12.175781 36.902344 12.324219 " fill-opacity="1" fill-rule="nonzero"/><path fill="#aa1f24" d="M 43.777344 12.496094 C 43.621094 12.59375 43.496094 12.722656 43.40625 12.882812 C 43.332031 13.09375 43.300781 13.304688 43.316406 13.527344 L 43.316406 18.515625 C 42.824219 18.332031 42.425781 18.027344 42.121094 17.601562 L 39.066406 13.699219 L 39.066406 17.183594 C 39.050781 17.402344 39.085938 17.617188 39.164062 17.820312 C 39.242188 17.984375 39.363281 18.113281 39.523438 18.207031 L 37.96875 18.207031 C 38.128906 18.113281 38.253906 17.984375 38.34375 17.820312 C 38.414062 17.613281 38.445312 17.402344 38.433594 17.183594 L 38.433594 13.527344 C 38.445312 13.304688 38.414062 13.089844 38.335938 12.882812 C 38.253906 12.71875 38.132812 12.589844 37.976562 12.496094 L 39.246094 12.496094 C 39.308594 12.609375 39.378906 12.71875 39.453125 12.824219 L 42.679688 16.929688 L 42.679688 13.527344 C 42.6875 13.304688 42.644531 13.089844 42.5625 12.882812 C 42.476562 12.71875 42.355469 12.589844 42.195312 12.496094 Z M 43.777344 12.496094 " fill-opacity="1" fill-rule="nonzero"/><path fill="#aa1f24" d="M 50.027344 18.117188 L 49.722656 18.171875 C 49.132812 18.296875 48.539062 18.367188 47.9375 18.378906 C 47.109375 18.414062 46.339844 18.207031 45.636719 17.769531 C 45.234375 17.511719 44.921875 17.175781 44.699219 16.753906 C 44.472656 16.332031 44.371094 15.882812 44.382812 15.40625 C 44.367188 14.910156 44.480469 14.4375 44.71875 14 C 44.960938 13.5625 45.292969 13.210938 45.71875 12.953125 C 46.402344 12.515625 47.148438 12.308594 47.960938 12.332031 C 48.425781 12.332031 48.886719 12.382812 49.339844 12.480469 L 49.339844 13.503906 C 48.898438 13.109375 48.378906 12.925781 47.789062 12.953125 C 47.113281 12.929688 46.527344 13.144531 46.03125 13.601562 C 45.558594 14.050781 45.332031 14.605469 45.351562 15.257812 C 45.34375 15.949219 45.59375 16.535156 46.101562 17.007812 C 46.59375 17.507812 47.1875 17.757812 47.890625 17.753906 C 48.300781 17.765625 48.699219 17.703125 49.085938 17.574219 L 49.085938 16.429688 C 49.105469 16.222656 49.105469 16.011719 49.085938 15.804688 C 49.039062 15.585938 48.921875 15.421875 48.726562 15.3125 L 50.027344 15.3125 C 49.992188 15.480469 49.976562 15.652344 49.984375 15.828125 L 49.984375 17.679688 C 49.976562 17.828125 49.992188 17.972656 50.027344 18.117188 " fill-opacity="1" fill-rule="nonzero"/><path fill="#aa1f24" d="M 58.546875 15.3125 C 58.550781 15.882812 58.398438 16.410156 58.09375 16.894531 C 57.800781 17.371094 57.394531 17.722656 56.882812 17.945312 C 56.132812 18.1875 55.363281 18.285156 54.574219 18.238281 L 53.171875 18.238281 C 53.304688 18.132812 53.410156 18.003906 53.484375 17.851562 C 53.542969 17.605469 53.570312 17.355469 53.558594 17.101562 L 53.558594 13.617188 C 53.578125 13.40625 53.578125 13.199219 53.558594 12.988281 C 53.511719 12.769531 53.394531 12.605469 53.199219 12.496094 L 55.34375 12.496094 C 56.179688 12.472656 56.929688 12.722656 57.585938 13.242188 C 57.902344 13.496094 58.144531 13.808594 58.316406 14.179688 C 58.484375 14.546875 58.566406 14.933594 58.554688 15.339844 M 57.597656 15.4375 C 57.621094 14.804688 57.421875 14.25 56.996094 13.78125 C 56.519531 13.285156 55.941406 13.054688 55.253906 13.09375 C 54.984375 13.097656 54.714844 13.128906 54.449219 13.183594 L 54.449219 17.527344 C 54.664062 17.566406 54.878906 17.589844 55.097656 17.589844 C 55.695312 17.625 56.246094 17.484375 56.746094 17.164062 C 57.027344 16.960938 57.246094 16.703125 57.394531 16.394531 C 57.546875 16.082031 57.613281 15.753906 57.597656 15.40625 " fill-opacity="1" fill-rule="nonzero"/><path fill="#aa1f24" d="M 64.753906 18.238281 L 62.945312 18.238281 C 63.15625 18.109375 63.257812 17.992188 63.257812 17.886719 C 63.230469 17.71875 63.179688 17.558594 63.109375 17.402344 L 62.601562 16.074219 L 60.363281 16.074219 L 59.898438 17.433594 C 59.84375 17.574219 59.8125 17.726562 59.800781 17.878906 C 59.800781 18.027344 59.90625 18.15625 60.117188 18.269531 L 58.515625 18.269531 C 58.6875 18.164062 58.832031 18.03125 58.949219 17.871094 C 59.097656 17.632812 59.222656 17.386719 59.324219 17.125 L 60.863281 13.296875 C 60.914062 13.167969 60.949219 13.035156 60.960938 12.898438 C 60.945312 12.726562 60.859375 12.613281 60.699219 12.554688 L 62.078125 12.554688 L 63.914062 17.125 C 64.011719 17.390625 64.140625 17.636719 64.296875 17.871094 C 64.421875 18.039062 64.574219 18.175781 64.753906 18.28125 M 62.378906 15.558594 L 61.496094 13.316406 L 60.601562 15.558594 Z M 62.378906 15.558594 " fill-opacity="1" fill-rule="nonzero"/><path fill="#aa1f24" d="M 66.851562 18.238281 L 65.199219 18.238281 C 65.398438 18.132812 65.515625 17.972656 65.558594 17.753906 C 65.574219 17.542969 65.574219 17.335938 65.558594 17.125 L 65.558594 13.617188 C 65.578125 13.40625 65.578125 13.199219 65.558594 12.988281 C 65.511719 12.769531 65.394531 12.605469 65.199219 12.496094 L 66.851562 12.496094 C 66.652344 12.601562 66.535156 12.765625 66.5 12.988281 C 66.480469 13.199219 66.480469 13.40625 66.5 13.617188 L 66.5 17.125 C 66.480469 17.335938 66.480469 17.542969 66.5 17.753906 C 66.535156 17.972656 66.652344 18.136719 66.851562 18.238281 " fill-opacity="1" fill-rule="nonzero"/><path fill="#aa1f24" d="M 75.527344 18.238281 L 73.875 18.238281 C 74.066406 18.128906 74.1875 17.96875 74.234375 17.753906 C 74.253906 17.542969 74.253906 17.335938 74.234375 17.125 L 74.234375 15.46875 L 71.097656 15.46875 L 71.097656 17.125 C 71.082031 17.335938 71.082031 17.542969 71.097656 17.753906 C 71.140625 17.972656 71.261719 18.132812 71.457031 18.238281 L 69.867188 18.238281 C 70.066406 18.136719 70.183594 17.972656 70.21875 17.753906 C 70.238281 17.542969 70.238281 17.335938 70.21875 17.125 L 70.21875 13.617188 C 70.238281 13.40625 70.238281 13.199219 70.21875 12.988281 C 70.183594 12.765625 70.066406 12.601562 69.867188 12.496094 L 71.515625 12.496094 C 71.324219 12.605469 71.203125 12.769531 71.160156 12.988281 C 71.140625 13.199219 71.140625 13.40625 71.160156 13.617188 L 71.160156 14.804688 L 74.292969 14.804688 L 74.292969 13.617188 C 74.3125 13.40625 74.3125 13.199219 74.292969 12.988281 C 74.25 12.769531 74.128906 12.605469 73.9375 12.496094 L 75.585938 12.496094 C 75.390625 12.605469 75.273438 12.769531 75.234375 12.988281 C 75.203125 13.195312 75.191406 13.40625 75.199219 13.617188 L 75.199219 17.125 C 75.191406 17.335938 75.203125 17.542969 75.234375 17.753906 C 75.273438 17.96875 75.390625 18.132812 75.585938 18.238281 " fill-opacity="1" fill-rule="nonzero"/><path fill="#aa1f24" d="M 37.460938 15.332031 C 37.472656 16.195312 37.160156 16.914062 36.519531 17.492188 C 36.210938 17.773438 35.859375 17.988281 35.46875 18.140625 C 35.078125 18.292969 34.671875 18.367188 34.253906 18.367188 C 33.835938 18.367188 33.429688 18.292969 33.039062 18.140625 C 32.648438 17.988281 32.296875 17.773438 31.988281 17.492188 C 31.359375 16.925781 31.050781 16.222656 31.0625 15.378906 C 31.042969 14.507812 31.359375 13.785156 32.011719 13.207031 C 32.675781 12.605469 33.453125 12.324219 34.347656 12.355469 C 35.214844 12.320312 35.964844 12.609375 36.585938 13.214844 C 36.867188 13.488281 37.082031 13.808594 37.230469 14.175781 C 37.386719 14.546875 37.464844 14.933594 37.46875 15.332031 M 36.476562 15.476562 C 36.492188 14.824219 36.296875 14.246094 35.886719 13.742188 C 35.460938 13.226562 34.914062 12.976562 34.242188 12.996094 C 33.625 12.972656 33.101562 13.183594 32.667969 13.625 C 32.230469 14.085938 32.027344 14.632812 32.054688 15.265625 C 32.042969 15.976562 32.277344 16.59375 32.757812 17.117188 C 33.15625 17.5625 33.652344 17.78125 34.25 17.769531 C 34.875 17.789062 35.40625 17.574219 35.839844 17.125 C 36.273438 16.660156 36.480469 16.109375 36.453125 15.476562 " fill-opacity="1" fill-rule="nonzero"/><path fill="#aa1f24" d="M 82.523438 15.332031 C 82.535156 16.195312 82.222656 16.914062 81.582031 17.492188 C 81.273438 17.773438 80.921875 17.988281 80.53125 18.140625 C 80.140625 18.292969 79.734375 18.367188 79.316406 18.367188 C 78.898438 18.367188 78.492188 18.292969 78.101562 18.140625 C 77.710938 17.988281 77.359375 17.773438 77.050781 17.492188 C 76.441406 16.925781 76.144531 16.230469 76.160156 15.402344 C 76.140625 14.53125 76.457031 13.804688 77.109375 13.226562 C 77.773438 12.617188 78.554688 12.328125 79.453125 12.355469 C 80.324219 12.320312 81.070312 12.609375 81.695312 13.214844 C 81.976562 13.488281 82.191406 13.808594 82.335938 14.175781 C 82.492188 14.546875 82.574219 14.933594 82.574219 15.332031 M 81.582031 15.476562 C 81.601562 14.824219 81.402344 14.246094 80.992188 13.742188 C 80.566406 13.226562 80.019531 12.976562 79.351562 12.996094 C 78.734375 12.972656 78.207031 13.183594 77.773438 13.625 C 77.335938 14.085938 77.132812 14.632812 77.160156 15.265625 C 77.148438 15.976562 77.382812 16.59375 77.863281 17.117188 C 78.261719 17.5625 78.761719 17.78125 79.355469 17.769531 C 79.980469 17.789062 80.507812 17.578125 80.941406 17.132812 C 81.375 16.667969 81.578125 16.117188 81.550781 15.484375 " fill-opacity="1" fill-rule="nonzero"/><path fill="#aa1f24" d="M 88.460938 17.101562 L 88.019531 18.117188 C 87.585938 18.292969 87.136719 18.382812 86.667969 18.378906 C 85.757812 18.421875 84.957031 18.148438 84.261719 17.558594 C 83.628906 16.96875 83.328125 16.242188 83.359375 15.378906 C 83.332031 14.527344 83.625 13.808594 84.242188 13.21875 C 84.863281 12.605469 85.609375 12.320312 86.480469 12.363281 C 87.011719 12.375 87.535156 12.449219 88.046875 12.585938 L 88.046875 13.578125 C 87.5625 13.28125 87.035156 13.121094 86.464844 13.101562 C 85.882812 13.082031 85.382812 13.28125 84.972656 13.699219 C 84.5625 14.125 84.371094 14.636719 84.390625 15.230469 C 84.371094 15.894531 84.582031 16.472656 85.023438 16.96875 C 85.433594 17.449219 85.953125 17.683594 86.585938 17.679688 C 87.269531 17.644531 87.90625 17.453125 88.496094 17.101562 " fill-opacity="1" fill-rule="nonzero"/><path fill="#aa1f24" d="M 79.894531 19.917969 C 79.914062 20.082031 79.871094 20.222656 79.761719 20.34375 C 79.652344 20.464844 79.515625 20.527344 79.355469 20.527344 C 79.191406 20.527344 79.054688 20.464844 78.945312 20.34375 C 78.835938 20.222656 78.792969 20.082031 78.8125 19.917969 C 78.808594 19.765625 78.863281 19.640625 78.976562 19.539062 C 79.082031 19.429688 79.214844 19.378906 79.363281 19.378906 C 79.511719 19.382812 79.636719 19.4375 79.738281 19.542969 C 79.84375 19.648438 79.894531 19.769531 79.894531 19.917969 " fill-opacity="1" fill-rule="nonzero"/><path fill="#aa1f24" d="M 62.175781 19.917969 C 62.195312 20.082031 62.152344 20.222656 62.042969 20.34375 C 61.933594 20.464844 61.796875 20.527344 61.636719 20.527344 C 61.472656 20.527344 61.335938 20.464844 61.226562 20.34375 C 61.117188 20.222656 61.074219 20.082031 61.09375 19.917969 C 61.089844 19.765625 61.144531 19.640625 61.257812 19.539062 C 61.363281 19.429688 61.496094 19.378906 61.644531 19.378906 C 61.792969 19.382812 61.917969 19.4375 62.019531 19.542969 C 62.125 19.648438 62.175781 19.769531 62.175781 19.917969 " fill-opacity="1" fill-rule="nonzero"/><path fill="#aa1f24" d="M 53.171875 14.734375 L 55.5625 14.734375 L 55.5625 15.371094 L 53.171875 15.371094 Z M 53.171875 14.734375 " fill-opacity="1" fill-rule="nonzero"/><path fill="#aa1f24" d="M 20.324219 27.640625 L 19.882812 28.632812 C 19.449219 28.804688 19 28.890625 18.53125 28.886719 C 17.621094 28.929688 16.820312 28.65625 16.128906 28.0625 C 15.492188 27.480469 15.191406 26.753906 15.226562 25.890625 C 15.199219 25.039062 15.492188 24.316406 16.105469 23.726562 C 16.726562 23.113281 17.472656 22.828125 18.347656 22.867188 C 18.878906 22.878906 19.398438 22.957031 19.914062 23.089844 L 19.914062 24.152344 C 19.429688 23.851562 18.902344 23.691406 18.332031 23.675781 C 17.746094 23.652344 17.246094 23.851562 16.835938 24.269531 C 16.425781 24.699219 16.230469 25.210938 16.253906 25.800781 C 16.238281 26.464844 16.449219 27.042969 16.890625 27.535156 C 17.300781 28.011719 17.820312 28.25 18.449219 28.242188 C 19.132812 28.210938 19.773438 28.023438 20.363281 27.675781 " fill-opacity="1" fill-rule="nonzero"/><path fill="#aa1f24" d="M 27.15625 25.863281 C 27.171875 26.726562 26.855469 27.449219 26.214844 28.027344 C 25.90625 28.308594 25.554688 28.523438 25.164062 28.675781 C 24.773438 28.824219 24.367188 28.902344 23.949219 28.902344 C 23.53125 28.902344 23.125 28.824219 22.734375 28.675781 C 22.34375 28.523438 21.992188 28.308594 21.683594 28.027344 C 21.054688 27.464844 20.746094 26.757812 20.757812 25.914062 C 20.738281 25.042969 21.054688 24.320312 21.707031 23.742188 C 22.367188 23.132812 23.152344 22.839844 24.050781 22.867188 C 24.917969 22.835938 25.667969 23.121094 26.289062 23.726562 C 26.570312 24.003906 26.785156 24.324219 26.933594 24.6875 C 27.089844 25.058594 27.167969 25.445312 27.171875 25.847656 M 26.132812 26.003906 C 26.152344 25.355469 25.953125 24.78125 25.542969 24.277344 C 25.121094 23.757812 24.570312 23.507812 23.902344 23.53125 C 23.285156 23.511719 22.757812 23.71875 22.324219 24.160156 C 21.886719 24.621094 21.683594 25.171875 21.714844 25.808594 C 21.699219 26.519531 21.933594 27.132812 22.414062 27.652344 C 22.8125 28.097656 23.3125 28.316406 23.910156 28.304688 C 24.53125 28.328125 25.058594 28.117188 25.492188 27.667969 C 25.945312 27.207031 26.160156 26.652344 26.132812 26.003906 M 25.386719 22.515625 C 24.882812 22.488281 24.414062 22.347656 23.976562 22.097656 C 23.535156 22.359375 23.054688 22.5 22.542969 22.515625 L 23.976562 21.292969 Z M 25.386719 22.515625 " fill-opacity="1" fill-rule="nonzero"/><path fill="#aa1f24" d="M 33.667969 23.03125 C 33.507812 23.125 33.382812 23.25 33.292969 23.414062 C 33.222656 23.621094 33.191406 23.835938 33.203125 24.054688 L 33.203125 29.050781 C 32.714844 28.859375 32.316406 28.554688 32.011719 28.132812 L 28.957031 24.265625 L 28.957031 27.742188 C 28.945312 27.964844 28.976562 28.179688 29.054688 28.386719 C 29.132812 28.550781 29.25 28.675781 29.410156 28.765625 L 27.859375 28.765625 C 28.019531 28.675781 28.144531 28.550781 28.230469 28.386719 C 28.304688 28.175781 28.332031 27.964844 28.320312 27.742188 L 28.320312 24.054688 C 28.335938 23.832031 28.304688 23.613281 28.222656 23.40625 C 28.144531 23.238281 28.027344 23.113281 27.867188 23.023438 L 29.121094 23.023438 C 29.183594 23.136719 29.253906 23.242188 29.328125 23.34375 L 32.554688 27.460938 L 32.554688 24.054688 C 32.570312 23.835938 32.539062 23.625 32.457031 23.421875 C 32.378906 23.253906 32.265625 23.125 32.105469 23.03125 Z M 33.667969 23.03125 " fill-opacity="1" fill-rule="nonzero"/><path fill="#aa1f24" d="M 39.917969 28.632812 C 39.816406 28.640625 39.710938 28.65625 39.613281 28.675781 C 39.023438 28.808594 38.429688 28.878906 37.828125 28.886719 C 36.996094 28.921875 36.230469 28.71875 35.527344 28.273438 C 35.125 28.019531 34.8125 27.679688 34.585938 27.261719 C 34.363281 26.839844 34.257812 26.390625 34.273438 25.914062 C 34.265625 25.417969 34.378906 24.957031 34.617188 24.523438 C 34.855469 24.089844 35.1875 23.746094 35.609375 23.488281 C 36.292969 23.054688 37.039062 22.847656 37.847656 22.867188 C 38.316406 22.875 38.773438 22.921875 39.230469 23.015625 L 39.230469 24.015625 C 38.78125 23.636719 38.265625 23.460938 37.675781 23.488281 C 37.003906 23.464844 36.417969 23.679688 35.921875 24.136719 C 35.453125 24.59375 35.226562 25.148438 35.242188 25.800781 C 35.234375 26.492188 35.484375 27.070312 35.988281 27.542969 C 36.480469 28.046875 37.078125 28.296875 37.78125 28.289062 C 38.191406 28.296875 38.589844 28.242188 38.976562 28.117188 L 38.976562 26.960938 C 38.996094 26.75 38.996094 26.542969 38.976562 26.332031 C 38.933594 26.113281 38.816406 25.949219 38.617188 25.847656 L 39.933594 25.847656 C 39.894531 26.015625 39.882812 26.183594 39.886719 26.355469 L 39.886719 28.207031 C 39.882812 28.359375 39.898438 28.507812 39.933594 28.65625 " fill-opacity="1" fill-rule="nonzero"/><path fill="#aa1f24" d="M 48.8125 23.03125 C 48.648438 23.121094 48.523438 23.25 48.4375 23.414062 C 48.367188 23.621094 48.335938 23.835938 48.347656 24.054688 L 48.347656 29.050781 C 47.859375 28.863281 47.460938 28.558594 47.152344 28.132812 L 44.097656 24.265625 L 44.097656 27.742188 C 44.089844 27.964844 44.117188 28.175781 44.1875 28.386719 C 44.273438 28.546875 44.390625 28.671875 44.546875 28.765625 L 43 28.765625 C 43.160156 28.675781 43.285156 28.550781 43.367188 28.386719 C 43.4375 28.175781 43.46875 27.964844 43.457031 27.742188 L 43.457031 24.054688 C 43.46875 23.835938 43.4375 23.621094 43.367188 23.414062 C 43.285156 23.25 43.164062 23.125 43.007812 23.03125 L 44.277344 23.03125 C 44.339844 23.144531 44.410156 23.25 44.488281 23.351562 L 47.714844 27.46875 L 47.714844 24.054688 C 47.726562 23.835938 47.695312 23.625 47.617188 23.421875 C 47.53125 23.253906 47.410156 23.125 47.25 23.03125 Z M 48.8125 23.03125 " fill-opacity="1" fill-rule="nonzero"/><path fill="#aa1f24" d="M 55.058594 28.632812 C 54.957031 28.640625 54.855469 28.65625 54.753906 28.675781 C 54.167969 28.808594 53.570312 28.878906 52.96875 28.886719 C 52.140625 28.921875 51.371094 28.71875 50.667969 28.273438 C 50.265625 28.019531 49.953125 27.679688 49.730469 27.261719 C 49.503906 26.839844 49.402344 26.390625 49.414062 25.914062 C 49.414062 25.421875 49.53125 24.960938 49.773438 24.53125 C 50.015625 24.101562 50.351562 23.761719 50.773438 23.507812 C 51.457031 23.074219 52.203125 22.867188 53.015625 22.890625 C 53.476562 22.894531 53.933594 22.945312 54.386719 23.039062 L 54.386719 24.039062 C 53.941406 23.652344 53.425781 23.476562 52.835938 23.507812 C 52.164062 23.484375 51.582031 23.703125 51.089844 24.160156 C 50.617188 24.613281 50.386719 25.167969 50.402344 25.824219 C 50.390625 26.515625 50.640625 27.097656 51.148438 27.5625 C 51.636719 28.070312 52.234375 28.320312 52.941406 28.3125 C 53.347656 28.320312 53.746094 28.261719 54.132812 28.140625 L 54.132812 26.960938 C 54.148438 26.75 54.148438 26.542969 54.132812 26.332031 C 54.09375 26.113281 53.972656 25.949219 53.777344 25.847656 L 55.089844 25.847656 C 55.046875 26.011719 55.03125 26.183594 55.039062 26.355469 L 55.039062 28.207031 C 55.03125 28.359375 55.046875 28.507812 55.089844 28.65625 " fill-opacity="1" fill-rule="nonzero"/><path fill="#aa1f24" d="M 61.714844 28.765625 L 60.0625 28.765625 C 60.257812 28.660156 60.375 28.5 60.414062 28.28125 C 60.433594 28.070312 60.433594 27.863281 60.414062 27.652344 L 60.414062 26.003906 L 57.277344 26.003906 L 57.277344 27.652344 C 57.261719 27.863281 57.261719 28.070312 57.277344 28.28125 C 57.316406 28.503906 57.4375 28.664062 57.636719 28.765625 L 56.046875 28.765625 C 56.246094 28.664062 56.367188 28.503906 56.40625 28.28125 C 56.421875 28.070312 56.421875 27.863281 56.40625 27.652344 L 56.40625 24.152344 C 56.421875 23.941406 56.421875 23.734375 56.40625 23.523438 C 56.367188 23.304688 56.246094 23.140625 56.046875 23.039062 L 57.703125 23.039062 C 57.503906 23.140625 57.382812 23.304688 57.34375 23.523438 C 57.328125 23.734375 57.328125 23.941406 57.34375 24.152344 L 57.34375 25.339844 L 60.480469 25.339844 L 60.480469 24.152344 C 60.5 23.941406 60.5 23.734375 60.480469 23.523438 C 60.441406 23.308594 60.324219 23.144531 60.128906 23.039062 L 61.78125 23.039062 C 61.589844 23.148438 61.46875 23.308594 61.421875 23.523438 C 61.40625 23.734375 61.40625 23.941406 61.421875 24.152344 L 61.421875 27.660156 C 61.40625 27.871094 61.40625 28.078125 61.421875 28.289062 C 61.46875 28.503906 61.589844 28.664062 61.78125 28.773438 " fill-opacity="1" fill-rule="nonzero"/><path fill="#aa1f24" d="M 66.617188 27.632812 L 66.207031 28.765625 L 62.578125 28.765625 C 62.777344 28.664062 62.894531 28.5 62.929688 28.28125 C 62.949219 28.070312 62.949219 27.859375 62.929688 27.644531 L 62.929688 24.152344 C 62.949219 23.941406 62.949219 23.734375 62.929688 23.523438 C 62.894531 23.304688 62.777344 23.140625 62.578125 23.039062 L 65.476562 23.039062 C 65.589844 23.042969 65.699219 23.027344 65.804688 22.988281 L 65.804688 24.003906 C 65.667969 23.859375 65.507812 23.765625 65.320312 23.710938 C 65.128906 23.667969 64.9375 23.652344 64.746094 23.660156 C 64.441406 23.652344 64.140625 23.671875 63.839844 23.710938 L 63.839844 25.332031 L 65.007812 25.332031 C 65.109375 25.332031 65.207031 25.320312 65.304688 25.285156 L 65.304688 26.207031 C 65.113281 26.015625 64.886719 25.933594 64.617188 25.964844 L 63.871094 25.964844 L 63.871094 28.050781 C 64.226562 28.109375 64.585938 28.136719 64.945312 28.140625 C 65.570312 28.167969 66.140625 28 66.648438 27.640625 M 65.902344 22.523438 C 65.398438 22.496094 64.929688 22.355469 64.492188 22.105469 C 64.046875 22.367188 63.566406 22.507812 63.050781 22.523438 L 64.492188 21.300781 Z M 65.902344 22.523438 " fill-opacity="1" fill-rule="nonzero"/><path fill="#aa1f24" d="M 74.667969 25.847656 C 74.671875 26.417969 74.519531 26.941406 74.210938 27.421875 C 73.917969 27.898438 73.515625 28.253906 73.003906 28.484375 C 72.25 28.71875 71.480469 28.8125 70.695312 28.765625 L 69.277344 28.765625 C 69.410156 28.660156 69.515625 28.53125 69.589844 28.378906 C 69.648438 28.132812 69.671875 27.882812 69.664062 27.632812 L 69.664062 24.152344 C 69.683594 23.941406 69.683594 23.734375 69.664062 23.523438 C 69.625 23.304688 69.511719 23.144531 69.3125 23.039062 L 71.449219 23.039062 C 72.289062 23.015625 73.035156 23.265625 73.691406 23.785156 C 74.007812 24.039062 74.253906 24.351562 74.421875 24.71875 C 74.59375 25.089844 74.671875 25.476562 74.660156 25.882812 M 73.703125 25.972656 C 73.730469 25.339844 73.527344 24.785156 73.101562 24.316406 C 72.617188 23.832031 72.035156 23.609375 71.351562 23.660156 C 71.082031 23.664062 70.816406 23.695312 70.554688 23.757812 L 70.554688 28.09375 C 70.765625 28.132812 70.980469 28.152344 71.195312 28.152344 C 71.792969 28.191406 72.347656 28.050781 72.855469 27.734375 C 73.132812 27.53125 73.351562 27.273438 73.5 26.960938 C 73.652344 26.648438 73.71875 26.320312 73.703125 25.972656 " fill-opacity="1" fill-rule="nonzero"/><path fill="#aa1f24" d="M 81.710938 25.863281 C 81.722656 26.726562 81.410156 27.449219 80.769531 28.027344 C 80.128906 28.636719 79.367188 28.929688 78.484375 28.90625 C 77.617188 28.925781 76.871094 28.636719 76.242188 28.042969 C 75.613281 27.480469 75.304688 26.773438 75.316406 25.929688 C 75.300781 25.0625 75.613281 24.335938 76.257812 23.757812 C 76.925781 23.148438 77.707031 22.855469 78.609375 22.882812 C 79.480469 22.847656 80.226562 23.136719 80.851562 23.742188 C 81.136719 24.015625 81.351562 24.335938 81.5 24.703125 C 81.65625 25.074219 81.734375 25.460938 81.738281 25.863281 M 80.746094 26.003906 C 80.761719 25.355469 80.5625 24.78125 80.148438 24.277344 C 79.726562 23.757812 79.175781 23.507812 78.507812 23.53125 C 77.882812 23.5 77.347656 23.707031 76.90625 24.152344 C 76.464844 24.613281 76.257812 25.164062 76.289062 25.800781 C 76.277344 26.507812 76.511719 27.125 76.992188 27.644531 C 77.390625 28.085938 77.886719 28.304688 78.484375 28.296875 C 79.105469 28.320312 79.632812 28.109375 80.066406 27.660156 C 80.503906 27.199219 80.710938 26.648438 80.679688 26.011719 M 79.933594 22.523438 C 79.429688 22.496094 78.957031 22.355469 78.519531 22.105469 C 78.078125 22.367188 77.597656 22.507812 77.078125 22.523438 L 78.519531 21.300781 Z M 79.933594 22.523438 " fill-opacity="1" fill-rule="nonzero"/><path fill="#aa1f24" d="M 88.21875 23.03125 C 88.058594 23.121094 87.933594 23.25 87.847656 23.414062 C 87.777344 23.621094 87.746094 23.835938 87.757812 24.054688 L 87.757812 29.050781 C 87.269531 28.863281 86.871094 28.558594 86.5625 28.132812 L 83.507812 24.265625 L 83.507812 27.742188 C 83.5 27.964844 83.527344 28.175781 83.597656 28.386719 C 83.683594 28.546875 83.800781 28.671875 83.957031 28.765625 L 82.410156 28.765625 C 82.570312 28.675781 82.691406 28.550781 82.777344 28.386719 C 82.847656 28.175781 82.878906 27.964844 82.867188 27.742188 L 82.867188 24.054688 C 82.878906 23.835938 82.847656 23.621094 82.777344 23.414062 C 82.695312 23.25 82.574219 23.125 82.417969 23.03125 L 83.6875 23.03125 C 83.75 23.144531 83.816406 23.25 83.898438 23.351562 L 87.121094 27.46875 L 87.121094 24.054688 C 87.136719 23.835938 87.105469 23.625 87.027344 23.421875 C 86.941406 23.253906 86.820312 23.125 86.660156 23.03125 Z M 88.21875 23.03125 " fill-opacity="1" fill-rule="nonzero"/><path fill="#aa1f24" d="M 94.46875 28.632812 C 94.367188 28.640625 94.265625 28.65625 94.164062 28.675781 C 93.578125 28.808594 92.980469 28.878906 92.378906 28.886719 C 91.550781 28.921875 90.78125 28.71875 90.078125 28.273438 C 89.6875 28.015625 89.378906 27.679688 89.160156 27.265625 C 88.945312 26.847656 88.839844 26.40625 88.855469 25.9375 C 88.847656 25.441406 88.960938 24.976562 89.199219 24.542969 C 89.4375 24.109375 89.769531 23.765625 90.191406 23.507812 C 90.875 23.074219 91.621094 22.867188 92.433594 22.890625 C 92.894531 22.894531 93.351562 22.945312 93.804688 23.039062 L 93.804688 24.039062 C 93.359375 23.652344 92.84375 23.476562 92.253906 23.507812 C 91.582031 23.484375 90.996094 23.703125 90.503906 24.160156 C 90.03125 24.613281 89.804688 25.167969 89.816406 25.824219 C 89.808594 26.515625 90.054688 27.097656 90.566406 27.5625 C 91.054688 28.070312 91.652344 28.320312 92.355469 28.3125 C 92.765625 28.320312 93.164062 28.261719 93.550781 28.140625 L 93.550781 26.960938 C 93.570312 26.75 93.570312 26.542969 93.550781 26.332031 C 93.515625 26.109375 93.398438 25.949219 93.199219 25.847656 L 94.515625 25.847656 C 94.472656 26.011719 94.453125 26.183594 94.460938 26.355469 L 94.460938 28.207031 C 94.457031 28.359375 94.472656 28.507812 94.515625 28.65625 " fill-opacity="1" fill-rule="nonzero"/><path fill="#aa1f24" d="M 103.355469 23.03125 C 103.195312 23.121094 103.074219 23.25 102.988281 23.414062 C 102.917969 23.621094 102.886719 23.835938 102.898438 24.054688 L 102.898438 29.050781 C 102.40625 28.863281 102.007812 28.558594 101.699219 28.132812 L 98.644531 24.265625 L 98.644531 27.742188 C 98.632812 27.964844 98.664062 28.179688 98.742188 28.386719 C 98.820312 28.550781 98.941406 28.675781 99.097656 28.765625 L 97.546875 28.765625 C 97.707031 28.675781 97.832031 28.550781 97.917969 28.386719 C 97.992188 28.175781 98.019531 27.964844 98.007812 27.742188 L 98.007812 24.054688 C 98.023438 23.832031 97.988281 23.621094 97.914062 23.414062 C 97.832031 23.246094 97.714844 23.121094 97.554688 23.03125 L 98.824219 23.03125 C 98.886719 23.144531 98.957031 23.25 99.03125 23.351562 L 102.296875 27.46875 L 102.296875 24.054688 C 102.304688 23.835938 102.277344 23.625 102.207031 23.421875 C 102.117188 23.253906 101.996094 23.125 101.832031 23.03125 Z M 103.355469 23.03125 " fill-opacity="1" fill-rule="nonzero"/><path fill="#aa1f24" d="M 109.902344 28.765625 L 108.097656 28.765625 C 108.304688 28.640625 108.410156 28.527344 108.410156 28.421875 C 108.382812 28.253906 108.332031 28.09375 108.261719 27.9375 L 107.753906 26.609375 L 105.511719 26.609375 L 105.019531 27.9375 C 104.960938 28.078125 104.929688 28.226562 104.921875 28.378906 C 104.921875 28.527344 105.027344 28.65625 105.238281 28.765625 L 103.632812 28.765625 C 103.804688 28.664062 103.953125 28.53125 104.074219 28.371094 C 104.21875 28.132812 104.339844 27.882812 104.445312 27.625 L 106.027344 23.761719 C 106.085938 23.636719 106.121094 23.507812 106.132812 23.367188 C 106.132812 23.234375 106.042969 23.121094 105.863281 23.03125 L 107.253906 23.03125 L 109.082031 27.59375 C 109.183594 27.855469 109.308594 28.105469 109.464844 28.339844 C 109.589844 28.507812 109.746094 28.644531 109.925781 28.75 M 107.523438 26.039062 L 106.632812 23.761719 L 105.746094 26.039062 Z M 107.523438 26.039062 " fill-opacity="1" fill-rule="nonzero"/><g clip-path="url(#12a4703082)"><path fill="#aa1f24" d="M 112.003906 28.765625 L 110.351562 28.765625 C 110.550781 28.664062 110.667969 28.5 110.703125 28.28125 C 110.734375 28.074219 110.746094 27.863281 110.742188 27.652344 L 110.742188 24.152344 C 110.746094 23.941406 110.734375 23.734375 110.703125 23.523438 C 110.667969 23.304688 110.550781 23.140625 110.351562 23.039062 L 112.003906 23.039062 C 111.804688 23.144531 111.683594 23.304688 111.644531 23.523438 C 111.625 23.734375 111.625 23.941406 111.644531 24.152344 L 111.644531 27.660156 C 111.625 27.871094 111.625 28.078125 111.644531 28.289062 C 111.683594 28.507812 111.804688 28.667969 112.003906 28.773438 " fill-opacity="1" fill-rule="nonzero"/></g><path fill="#aa1f24" d="M 65.140625 30.453125 C 65.144531 30.621094 65.085938 30.761719 64.960938 30.871094 C 64.855469 30.96875 64.730469 31.015625 64.589844 31.015625 C 64.445312 31.015625 64.320312 30.96875 64.214844 30.871094 C 64.109375 30.765625 64.054688 30.636719 64.058594 30.484375 C 64.054688 30.332031 64.105469 30.207031 64.214844 30.101562 C 64.324219 29.996094 64.457031 29.941406 64.609375 29.945312 C 64.757812 29.945312 64.882812 29.996094 64.984375 30.101562 C 65.089844 30.207031 65.140625 30.335938 65.140625 30.484375 " fill-opacity="1" fill-rule="nonzero"/><path fill="#aa1f24" d="M 69.277344 25.332031 L 71.667969 25.332031 L 71.667969 25.964844 L 69.277344 25.964844 Z M 69.277344 25.332031 " fill-opacity="1" fill-rule="nonzero"/><path fill="#aa1f24" d="M 76.4375 20.589844 L 77.617188 21.761719 L 77.011719 21.761719 L 75.9375 21.066406 Z M 76.4375 20.589844 " fill-opacity="1" fill-rule="nonzero"/></svg>