<?xml version="1.0" encoding="UTF-8"?>
<svg xmlns="http://www.w3.org/2000/svg" xmlns:xlink="http://www.w3.org/1999/xlink" width="441px" height="452px" viewBox="0 0 441 451" version="1.1">
<g id="surface1">
<path style=" stroke:none;fill-rule:evenodd;fill:rgb(92.941176%,60.784314%,28.627451%);fill-opacity:1;" d="M 80.261719 13.765625 C 79.789062 14.03125 77.039062 17.824219 71.546875 25.792969 C 67.925781 31.050781 65.035156 35.222656 62.9375 38.234375 C 62.203125 39.289062 59.8125 42.746094 57.628906 45.917969 C 54.121094 51.007812 49.8125 57.238281 40.609375 70.523438 C 37.664062 74.773438 32.964844 81.59375 27.109375 90.113281 C 24.992188 93.195312 22.25 97.085938 21.011719 98.761719 C 19.777344 100.4375 18.785156 101.929688 18.8125 102.082031 C 18.839844 102.230469 19.730469 102.992188 20.789062 103.769531 C 26.558594 108.019531 31.351562 112.085938 35 115.824219 C 37.953125 118.847656 39.214844 120.316406 41.484375 123.378906 C 51.476562 136.835938 57.023438 150.816406 60.632812 171.605469 C 62.1875 180.546875 63.3125 190.519531 64.859375 209.011719 C 65.925781 221.753906 67.609375 236.027344 69.183594 245.691406 C 70.558594 254.113281 72.878906 265.292969 74.6875 272.21875 C 79.898438 292.132812 87.574219 310.550781 97.671875 327.375 C 106.171875 341.53125 116.152344 354.773438 127.308594 366.707031 C 131.3125 370.988281 138.457031 378.101562 142.390625 381.726562 C 145.367188 384.46875 152.683594 390.710938 156.320312 393.613281 C 171.09375 405.410156 188.089844 416.820312 208.277344 428.492188 C 209.941406 429.457031 213.15625 431.320312 215.425781 432.640625 C 217.695312 433.960938 219.824219 435.128906 220.15625 435.238281 C 220.722656 435.425781 220.867188 435.378906 222.175781 434.570312 C 223.75 433.597656 227.679688 431.292969 230.730469 429.554688 C 234.582031 427.355469 239.265625 424.585938 244.65625 421.316406 C 265.460938 408.703125 283.847656 395.121094 299.640625 380.699219 C 303.484375 377.1875 313.386719 367.152344 316.699219 363.414062 C 336.949219 340.554688 351.675781 315.820312 360.976562 289.046875 C 365.882812 274.929688 369.671875 259.011719 372.109375 242.304688 C 373.132812 235.277344 374.21875 226.824219 374.675781 222.273438 C 375.222656 216.867188 375.777344 210.746094 376.160156 205.902344 C 376.269531 204.492188 376.441406 202.558594 376.535156 201.601562 C 376.628906 200.644531 376.914062 197.640625 377.167969 194.925781 C 379.382812 171.074219 382.992188 154.402344 388.710938 141.601562 C 395.496094 126.417969 405.128906 114.65625 418.925781 104.699219 C 421.328125 102.96875 422.160156 102.289062 422.160156 102.054688 C 422.160156 101.949219 421.511719 101.03125 420.722656 100.007812 C 419.511719 98.441406 413.972656 90.507812 412.398438 88.085938 C 412.136719 87.683594 410.4375 85.214844 408.621094 82.597656 C 406.804688 79.980469 404.238281 76.277344 402.917969 74.363281 C 398.011719 67.269531 392.996094 60.03125 391.058594 57.257812 C 390.53125 56.503906 389.652344 55.230469 389.097656 54.421875 C 387.269531 51.75 385.597656 49.328125 383.925781 46.921875 C 383.015625 45.613281 381.566406 43.515625 380.707031 42.257812 C 379.847656 41 378.773438 39.4375 378.320312 38.78125 C 377.863281 38.128906 376.300781 35.863281 374.84375 33.75 C 373.386719 31.636719 371.90625 29.496094 371.554688 28.996094 C 371.203125 28.492188 370.015625 26.78125 368.910156 25.191406 C 367.804688 23.601562 366.652344 21.957031 366.351562 21.53125 C 366.046875 21.109375 364.914062 19.476562 363.828125 17.910156 C 362.742188 16.339844 361.589844 14.746094 361.261719 14.371094 L 360.671875 13.6875 L 220.589844 13.660156 C 143.546875 13.640625 80.398438 13.691406 80.261719 13.765625 M 84.292969 20.433594 C 83.6875 20.585938 83.136719 21.203125 81.550781 23.507812 C 80.71875 24.714844 77.824219 28.914062 75.121094 32.835938 C 72.417969 36.761719 69.863281 40.464844 69.445312 41.070312 C 68.394531 42.585938 67.109375 44.449219 63.976562 48.980469 C 60.132812 54.542969 51.449219 67.101562 48.503906 71.347656 C 47.5625 72.703125 45.804688 75.257812 44.59375 77.015625 C 43.382812 78.777344 41.535156 81.453125 40.488281 82.960938 C 39.4375 84.472656 36.949219 88.09375 34.953125 91.007812 C 32.957031 93.925781 30.738281 97.101562 30.019531 98.070312 C 28.507812 100.105469 28.238281 100.558594 28.363281 100.875 C 28.410156 101.003906 29.097656 101.59375 29.886719 102.1875 C 32.5625 104.195312 35.160156 106.523438 39.03125 110.394531 C 44.015625 115.371094 46.277344 118.0625 49.546875 122.894531 C 54.832031 130.710938 59.875 141.023438 62.449219 149.28125 C 65.738281 159.832031 67.738281 169.832031 69.347656 183.765625 C 69.558594 185.574219 69.808594 187.675781 69.910156 188.429688 C 70.011719 189.183594 70.257812 191.570312 70.457031 193.734375 C 70.65625 195.898438 70.902344 198.410156 71 199.3125 C 71.101562 200.21875 71.347656 203.058594 71.550781 205.625 C 71.753906 208.191406 72.007812 211.238281 72.113281 212.394531 C 72.222656 213.550781 72.425781 215.773438 72.566406 217.335938 C 73.230469 224.75 73.148438 224.003906 74.113281 231.695312 C 75.289062 241.097656 77.898438 256.117188 79.53125 262.859375 C 83.558594 279.519531 87.59375 291.59375 93.433594 304.449219 C 98.300781 315.167969 105.492188 327.664062 112.734375 337.992188 C 115.777344 342.332031 121.15625 349.328125 124.691406 353.535156 C 131.886719 362.105469 143.722656 374.15625 151.199219 380.523438 C 151.609375 380.875 152.683594 381.808594 153.582031 382.605469 C 159.824219 388.109375 170.703125 396.4375 180.054688 402.863281 C 183.878906 405.492188 184.898438 406.171875 189.21875 408.964844 C 198.777344 415.152344 204.285156 418.480469 219.585938 427.296875 C 220.507812 427.828125 220.054688 428.011719 225.046875 425.066406 C 226.960938 423.9375 230.054688 422.121094 231.921875 421.039062 C 249.910156 410.566406 266.105469 399.652344 279.386719 389.046875 C 284.40625 385.039062 289.683594 380.570312 292.429688 378 C 293.269531 377.214844 294.371094 376.203125 294.875 375.753906 C 300.359375 370.871094 311.355469 359.375 315.960938 353.699219 C 316.460938 353.085938 317.742188 351.523438 318.808594 350.226562 C 320.863281 347.726562 326.101562 340.8125 327.800781 338.351562 C 335.136719 327.738281 339.960938 319.660156 344.804688 309.902344 C 352.332031 294.734375 357.773438 279.089844 361.605469 261.605469 C 365.167969 245.363281 367.035156 232.082031 369.191406 207.636719 C 371.402344 182.566406 372.058594 177.164062 374.257812 165.835938 C 376.617188 153.6875 379.855469 143.710938 384.351562 134.742188 C 388.871094 125.722656 393.144531 119.445312 399.417969 112.601562 C 401.746094 110.0625 407.453125 104.894531 411.210938 101.925781 C 411.890625 101.386719 412.445312 100.808594 412.445312 100.632812 C 412.445312 100.457031 411.269531 98.621094 409.832031 96.550781 C 408.398438 94.484375 405.65625 90.5 403.738281 87.703125 C 401.824219 84.90625 399.757812 81.910156 399.148438 81.050781 C 398.539062 80.191406 396.5625 77.347656 394.761719 74.730469 C 392.957031 72.113281 390.480469 68.53125 389.253906 66.773438 C 388.027344 65.011719 385.738281 61.660156 384.164062 59.324219 C 382.589844 56.988281 380.390625 53.820312 379.28125 52.28125 C 377.175781 49.359375 376.980469 49.078125 375.785156 47.289062 C 375.382812 46.683594 374.613281 45.574219 374.082031 44.820312 C 372.789062 42.996094 365.128906 31.878906 362.230469 27.621094 C 359.234375 23.222656 357.785156 21.214844 357.28125 20.761719 C 356.875 20.398438 356.597656 20.394531 220.765625 20.367188 C 145.90625 20.351562 84.492188 20.378906 84.292969 20.433594 M 442.136719 70.613281 L 442.136719 94.398438 L 489.789062 94.398438 L 489.789062 46.832031 L 442.136719 46.832031 L 442.136719 70.613281 M 230.363281 108.132812 C 228.246094 108.214844 225.027344 108.367188 223.214844 108.480469 C 217.921875 108.804688 214.484375 109.003906 210.570312 109.214844 C 207.371094 109.390625 205.390625 109.535156 199.160156 110.050781 C 198.429688 110.113281 197.832031 110.199219 197.832031 110.242188 C 197.832031 110.289062 198.253906 111.414062 198.773438 112.742188 C 199.292969 114.074219 200.0625 116.066406 200.488281 117.171875 C 206.582031 133.042969 215.199219 146.542969 224.488281 154.757812 C 232.847656 162.15625 243.273438 166.9375 255.5625 169.011719 C 263.019531 170.269531 275.742188 170.484375 289.742188 169.589844 C 291.355469 169.484375 295.191406 169.238281 298.265625 169.039062 C 304.703125 168.625 309.828125 168.371094 315.015625 168.207031 C 317.019531 168.144531 318.769531 168.050781 318.910156 167.996094 C 319.265625 167.859375 319.230469 167.667969 318.535156 166.027344 C 318.191406 165.21875 317.332031 163.15625 316.625 161.445312 C 309.785156 144.914062 302.773438 133.214844 294.882812 125.160156 C 286.988281 117.105469 277.609375 112.132812 265.824219 109.757812 C 262.570312 109.101562 257.375 108.371094 254.207031 108.121094 C 251.519531 107.910156 236.152344 107.917969 230.363281 108.132812 "/>
<path style=" stroke:none;fill-rule:evenodd;fill:rgb(19.215686%,30.196078%,56.470588%);fill-opacity:1;" d="M 149.859375 -0.597656 C 189.144531 -0.570312 253.433594 -0.570312 292.722656 -0.597656 C 332.007812 -0.621094 299.863281 -0.644531 221.289062 -0.644531 C 142.714844 -0.644531 110.570312 -0.621094 149.859375 -0.597656 M 442.136719 23.050781 L 442.136719 46.832031 L 489.789062 46.832031 L 489.789062 -0.734375 L 442.136719 -0.734375 L 442.136719 23.050781 M 71.964844 1.570312 C 71.4375 2.367188 70.113281 4.292969 69.027344 5.851562 C 66.996094 8.769531 63.371094 14.003906 58.382812 21.21875 C 56.816406 23.484375 54.210938 27.25 52.59375 29.589844 C 50.976562 31.929688 47.078125 37.570312 43.933594 42.121094 C 40.789062 46.675781 37.5 51.429688 36.625 52.6875 C 35.75 53.945312 33.128906 57.730469 30.804688 61.101562 C 28.480469 64.472656 25.949219 68.136719 25.183594 69.242188 C 23.859375 71.152344 16.855469 81.296875 12.359375 87.8125 C 11.214844 89.472656 8.863281 92.847656 7.132812 95.3125 C 5.40625 97.777344 3.386719 100.699219 2.644531 101.804688 C 1.902344 102.914062 1.054688 104.121094 0.753906 104.496094 C 0.457031 104.867188 0.261719 105.292969 0.316406 105.4375 C 0.433594 105.742188 2.28125 107.128906 7.683594 110.957031 C 23.941406 122.480469 29.863281 128.5625 36.691406 140.742188 C 40.613281 147.742188 42.984375 153.894531 45.054688 162.453125 C 47.558594 172.800781 48.976562 183.144531 51.117188 206.722656 C 51.667969 212.746094 52.695312 222.980469 53.328125 228.675781 C 56.867188 260.5625 62.851562 284.84375 73.011719 308.53125 C 81.726562 328.851562 94.832031 349.679688 110.480469 368.078125 C 118.820312 377.890625 130.472656 389.484375 140.699219 398.15625 C 156.40625 411.46875 172.742188 422.980469 194.257812 435.898438 C 198.726562 438.582031 208 443.96875 210.570312 445.378906 C 211.863281 446.085938 215.570312 448.1875 218.261719 449.734375 C 220.507812 451.027344 220.355469 451.042969 223.359375 449.25 C 224.792969 448.394531 227.40625 446.894531 229.171875 445.914062 C 242.128906 438.730469 259.636719 428.085938 268.667969 421.902344 C 276.539062 416.507812 280.261719 413.859375 285.253906 410.085938 C 297.429688 400.882812 306.335938 393.160156 316.597656 382.90625 C 326.984375 372.527344 334.894531 363.261719 343.003906 351.980469 C 362.238281 325.210938 374.808594 296.9375 381.753906 264.808594 C 385.339844 248.222656 387.277344 233.734375 389.996094 203.25 C 392.285156 177.554688 394.707031 163.6875 398.972656 151.839844 C 401.8125 143.953125 407.019531 134.824219 412.03125 128.9375 C 417.117188 122.964844 424.765625 116.539062 435.628906 109.117188 C 438.414062 107.214844 440.667969 105.578125 440.667969 105.457031 C 440.667969 105.410156 438.925781 102.882812 436.789062 99.839844 C 434.65625 96.796875 430.667969 91.054688 427.929688 87.078125 C 425.1875 83.105469 421.320312 77.507812 419.332031 74.640625 C 417.347656 71.773438 415.265625 68.765625 414.710938 67.960938 C 414.15625 67.15625 412.785156 65.179688 411.667969 63.570312 C 409.410156 60.3125 406.203125 55.675781 393.214844 36.859375 C 390.15625 32.433594 386.9375 27.78125 386.0625 26.523438 C 385.183594 25.265625 381.882812 20.492188 378.722656 15.914062 C 373.707031 8.648438 371.414062 5.355469 368.589844 1.347656 L 367.894531 0.363281 L 225.621094 0.363281 C 147.367188 0.363281 81 0.3125 78.136719 0.246094 L 72.929688 0.125 L 71.964844 1.570312 M 79.863281 10.226562 C 78.835938 10.285156 77.964844 10.375 77.921875 10.425781 C 77.882812 10.476562 77.65625 10.847656 77.417969 11.25 C 77.179688 11.652344 74.621094 15.398438 71.734375 19.574219 C 68.84375 23.75 65.175781 29.058594 63.582031 31.371094 C 59.207031 37.722656 49.917969 51.160156 47.902344 54.058594 C 46.925781 55.464844 43.867188 59.886719 41.105469 63.882812 C 38.347656 67.878906 34.855469 72.9375 33.34375 75.125 C 31.828125 77.3125 29.28125 81 27.679688 83.320312 C 20.378906 93.878906 18.957031 95.945312 17.160156 98.605469 C 16.105469 100.164062 14.953125 101.796875 14.601562 102.230469 C 14.25 102.664062 14.03125 103.085938 14.121094 103.164062 C 14.207031 103.242188 14.859375 103.707031 15.5625 104.195312 C 18.332031 106.117188 22.863281 109.582031 25.917969 112.117188 C 35.792969 120.304688 42.058594 128.335938 47.832031 140.210938 C 52.476562 149.761719 55.449219 160.207031 57.699219 174.890625 C 58.496094 180.082031 60.1875 195.445312 61.027344 205.078125 C 61.085938 205.730469 61.25 207.417969 61.394531 208.828125 C 61.542969 210.234375 61.820312 213.160156 62.019531 215.324219 C 63.550781 232.089844 65.222656 244.097656 67.996094 258.1875 C 70.792969 272.425781 75.382812 287.746094 80.699219 300.617188 C 88.40625 319.273438 98.289062 336.234375 111.152344 352.894531 C 117.878906 361.605469 124.011719 368.539062 132.117188 376.585938 C 149.429688 393.785156 168.726562 408.507812 195.238281 424.742188 C 201.105469 428.332031 208.804688 432.847656 213.039062 435.179688 C 215.644531 436.613281 218.648438 438.3125 219.851562 439.03125 C 220.394531 439.355469 220.097656 439.484375 224.289062 437.140625 C 245.261719 425.421875 264.65625 413.039062 278.839844 402.316406 C 282.042969 399.894531 286.785156 396.179688 288.09375 395.066406 C 288.699219 394.554688 289.851562 393.605469 290.660156 392.960938 C 292.296875 391.652344 295.625 388.800781 297.164062 387.390625 C 297.71875 386.882812 298.914062 385.808594 299.816406 385 C 316.066406 370.542969 332.082031 351.476562 343.699219 332.773438 C 346.074219 328.949219 346.136719 328.84375 347.980469 325.636719 C 363.214844 299.171875 372.472656 269.414062 376.980469 232.425781 C 377.226562 230.414062 377.511719 228.109375 377.613281 227.304688 C 377.71875 226.5 377.925781 224.648438 378.078125 223.1875 C 378.230469 221.730469 378.484375 219.34375 378.640625 217.882812 C 378.796875 216.425781 378.996094 214.40625 379.089844 213.402344 C 379.179688 212.394531 379.464844 209.265625 379.71875 206.449219 C 379.972656 203.632812 380.269531 200.339844 380.378906 199.132812 C 380.777344 194.621094 381.722656 185.359375 382.019531 183.03125 C 384.355469 164.769531 387.226562 152.890625 391.726562 142.875 C 395.957031 133.460938 401.527344 125.023438 407.769531 118.566406 C 411.644531 114.558594 419.203125 108.308594 425.046875 104.285156 C 425.976562 103.640625 426.742188 103.054688 426.742188 102.980469 C 426.742188 102.90625 426.425781 102.445312 426.042969 101.960938 C 425.660156 101.472656 424.273438 99.511719 422.964844 97.597656 C 421.652344 95.6875 418.457031 91.046875 415.855469 87.289062 C 409.171875 77.617188 408.246094 76.277344 405.394531 72.167969 C 403.996094 70.15625 401.78125 66.945312 400.46875 65.035156 C 398.460938 62.105469 393.609375 55.09375 390.726562 50.949219 C 390.304688 50.34375 388.597656 47.875 386.933594 45.460938 C 385.269531 43.042969 382.734375 39.382812 381.304688 37.320312 C 377.519531 31.863281 373.640625 26.226562 368.453125 18.660156 C 365.933594 14.984375 363.550781 11.554688 363.152344 11.035156 L 362.433594 10.085938 L 222.082031 10.105469 C 144.886719 10.113281 80.886719 10.167969 79.863281 10.226562 M 297.265625 35.449219 C 296.523438 35.855469 295.367188 37.09375 295.339844 37.507812 C 295.320312 37.777344 297.238281 37.488281 297.816406 37.128906 C 298.46875 36.726562 299.363281 35.59375 299.363281 35.171875 C 299.363281 34.773438 298.222656 34.921875 297.265625 35.449219 M 291.675781 37.539062 C 291.328125 37.632812 290.605469 38.003906 290.066406 38.359375 C 288.011719 39.722656 288.394531 40.628906 290.59375 39.605469 C 291.878906 39.011719 292.234375 39.027344 294.339844 39.789062 C 295.3125 40.140625 296.152344 40.429688 296.199219 40.429688 C 296.378906 40.429688 295.625 39.414062 295.070312 38.90625 C 293.679688 37.640625 292.710938 37.25 291.675781 37.539062 M 143.34375 41.464844 C 142.683594 41.578125 142.554688 41.933594 142.203125 44.597656 C 141.867188 47.183594 141.839844 47.273438 141.160156 48.226562 C 140.433594 49.238281 140.519531 49.75 141.492188 50.199219 L 142.246094 50.546875 L 142.351562 53.191406 C 142.410156 54.644531 142.5 55.875 142.546875 55.921875 C 142.742188 56.117188 145.265625 56.332031 147.339844 56.332031 C 152.980469 56.332031 155.601562 54.859375 156.796875 51.015625 C 158.078125 46.910156 155.710938 43.03125 151.171875 41.789062 C 150.09375 41.496094 144.503906 41.261719 143.34375 41.464844 M 165.527344 41.707031 C 165.035156 42.09375 163.503906 45.078125 161.816406 48.933594 C 161.246094 50.242188 160.292969 52.394531 159.695312 53.71875 C 159.097656 55.039062 158.609375 56.171875 158.609375 56.234375 C 158.609375 56.429688 160.878906 56.332031 161.542969 56.105469 C 162.085938 55.917969 162.285156 55.675781 162.882812 54.46875 L 163.582031 53.050781 L 165.082031 53.007812 C 167.824219 52.925781 170.226562 53.070312 170.644531 53.332031 C 170.859375 53.472656 171.230469 54.09375 171.46875 54.714844 C 171.984375 56.070312 172.457031 56.34375 174.277344 56.34375 L 175.480469 56.34375 L 175.351562 55.839844 C 175.140625 55.003906 171.933594 47.804688 170.296875 44.492188 C 168.933594 41.738281 168.527344 41.34375 167.050781 41.34375 C 166.273438 41.34375 165.867188 41.4375 165.527344 41.707031 M 214.140625 41.6875 C 212.601562 42.183594 211.753906 42.683594 210.730469 43.683594 C 209.074219 45.316406 208.367188 47.667969 208.792969 50.152344 C 209.242188 52.757812 210.648438 54.539062 213.226562 55.777344 L 214.601562 56.4375 L 217.257812 56.4375 C 219.851562 56.4375 219.945312 56.421875 221.105469 55.871094 C 223.570312 54.699219 225.105469 52.679688 225.542969 50.039062 C 225.792969 48.550781 225.542969 46.699219 224.933594 45.507812 C 224.039062 43.757812 221.972656 42.136719 219.941406 41.597656 C 218.578125 41.234375 215.394531 41.285156 214.140625 41.6875 M 232.625 41.765625 C 230.515625 42.484375 229.023438 43.789062 228.09375 45.734375 C 227.664062 46.636719 227.613281 46.949219 227.621094 48.753906 C 227.628906 50.410156 227.707031 50.953125 228.054688 51.839844 C 228.863281 53.882812 231.382812 55.832031 233.894531 56.355469 C 235.960938 56.785156 239.945312 56.199219 240.914062 55.324219 C 241.441406 54.851562 241.363281 54.03125 240.730469 53.402344 C 240.074219 52.75 239.59375 52.734375 238.296875 53.324219 C 235.425781 54.636719 232.632812 53.710938 231.398438 51.039062 C 231.132812 50.472656 230.898438 49.570312 230.851562 48.976562 C 230.785156 48.070312 230.855469 47.753906 231.347656 46.753906 C 231.941406 45.554688 232.515625 45.003906 233.9375 44.257812 C 235.101562 43.644531 236.714844 43.683594 238.410156 44.363281 C 239.902344 44.957031 240.386719 44.875 241.039062 43.910156 C 241.589844 43.097656 241.515625 42.816406 240.625 42.3125 C 238.796875 41.289062 234.832031 41.015625 232.625 41.765625 M 279.707031 41.453125 C 279.632812 41.527344 279.570312 43.574219 279.570312 46.003906 C 279.570312 51.101562 279.429688 51.925781 278.382812 52.84375 C 277.667969 53.46875 276.871094 53.679688 275.265625 53.667969 C 274.046875 53.660156 273.335938 53.367188 272.558594 52.550781 C 271.734375 51.6875 271.640625 51.082031 271.582031 46.28125 C 271.550781 43.816406 271.519531 41.738281 271.515625 41.664062 C 271.511719 41.589844 270.753906 41.527344 269.832031 41.527344 L 268.160156 41.527344 L 268.289062 46.511719 C 268.359375 49.253906 268.503906 51.796875 268.613281 52.164062 C 268.875 53.078125 269.957031 54.457031 270.984375 55.195312 C 272.257812 56.105469 274.4375 56.609375 276.484375 56.464844 C 278.703125 56.304688 279.9375 55.804688 281.238281 54.535156 C 282.808594 53 282.898438 52.589844 283.007812 46.511719 L 283.097656 41.527344 L 281.996094 41.527344 C 281.394531 41.527344 280.664062 41.480469 280.371094 41.421875 C 280.082031 41.363281 279.78125 41.375 279.707031 41.453125 M 286.269531 44.652344 C 286.203125 46.503906 286.171875 49.875 286.203125 52.136719 L 286.261719 56.253906 L 291.027344 56.308594 C 293.648438 56.339844 296.222656 56.3125 296.753906 56.25 L 297.714844 56.136719 L 297.710938 55.097656 C 297.710938 54.523438 297.648438 53.964844 297.574219 53.851562 C 297.484375 53.714844 296.210938 53.621094 293.816406 53.566406 C 291.542969 53.515625 290.121094 53.410156 289.996094 53.285156 C 289.738281 53.027344 289.570312 51.574219 289.722656 50.957031 L 289.84375 50.492188 L 296.386719 50.492188 L 296.5 49.917969 C 296.566406 49.605469 296.617188 48.945312 296.617188 48.457031 L 296.617188 47.5625 L 293.324219 47.5625 C 289.457031 47.5625 289.527344 47.601562 289.738281 45.636719 C 289.839844 44.664062 289.921875 44.472656 290.257812 44.382812 C 290.480469 44.324219 292.164062 44.273438 294 44.273438 L 297.34375 44.269531 L 297.46875 43.765625 C 297.539062 43.492188 297.601562 42.941406 297.609375 42.546875 C 297.621094 41.90625 297.570312 41.816406 297.082031 41.683594 C 296.78125 41.605469 294.253906 41.480469 291.464844 41.410156 L 286.394531 41.285156 L 286.269531 44.652344 M 178.035156 48.941406 L 178.035156 56.359375 L 179.734375 56.304688 L 181.425781 56.253906 L 181.464844 48.890625 L 181.5 41.527344 L 178.035156 41.527344 L 178.035156 48.941406 M 191.277344 48.890625 L 191.324219 56.253906 L 194.808594 56.253906 L 194.855469 53.277344 L 194.90625 50.300781 L 198.707031 50.351562 L 202.503906 50.398438 L 202.597656 53.324219 L 202.6875 56.253906 L 204.292969 56.304688 L 205.894531 56.359375 L 205.894531 41.527344 L 202.597656 41.527344 L 202.597656 47.335938 L 198.882812 47.421875 C 196.84375 47.464844 195.109375 47.46875 195.035156 47.429688 C 194.960938 47.390625 194.898438 46.046875 194.898438 44.441406 L 194.898438 41.527344 L 191.230469 41.527344 L 191.277344 48.890625 M 250.476562 48.882812 L 250.523438 56.253906 L 253.769531 56.253906 L 253.742188 53.757812 C 253.726562 52.386719 253.765625 51.046875 253.832031 50.785156 C 253.945312 50.332031 254.011719 50.308594 255.167969 50.308594 C 255.839844 50.308594 257.5625 50.363281 259 50.429688 L 261.609375 50.546875 L 261.609375 56.109375 L 263.214844 56.210938 C 264.097656 56.265625 264.859375 56.285156 264.910156 56.253906 C 264.960938 56.222656 264.980469 52.894531 264.949219 48.863281 L 264.902344 41.527344 L 261.609375 41.527344 L 261.609375 47.378906 L 253.921875 47.378906 L 253.871094 44.5 L 253.820312 41.617188 L 252.125 41.566406 L 250.425781 41.511719 L 250.476562 48.882812 M 215.699219 44.042969 C 213.488281 44.832031 212.179688 46.390625 211.996094 48.445312 C 211.808594 50.605469 213.375 53.054688 215.289062 53.589844 C 216.652344 53.96875 218.632812 53.773438 219.800781 53.136719 C 221.257812 52.347656 222.574219 50.3125 222.574219 48.855469 C 222.574219 47.941406 221.996094 46.65625 221.171875 45.746094 C 219.683594 44.089844 217.480469 43.40625 215.699219 44.042969 M 147.339844 44.203125 C 146.214844 44.46875 145.820312 45.015625 145.75 46.421875 C 145.691406 47.570312 146.023438 47.816406 147.753906 47.894531 C 149.691406 47.984375 150.140625 48.574219 149.15625 49.746094 C 148.710938 50.269531 148.601562 50.308594 147.441406 50.308594 C 145.929688 50.308594 145.558594 50.59375 145.695312 51.65625 C 145.875 53.082031 146.488281 53.601562 147.980469 53.601562 C 150.355469 53.601562 152.285156 52.675781 153.050781 51.164062 C 153.730469 49.824219 153.847656 47.875 153.3125 46.773438 C 152.851562 45.824219 151.972656 45.089844 150.753906 44.632812 C 149.859375 44.296875 147.960938 44.058594 147.339844 44.203125 M 167.078125 44.390625 C 166.980469 44.578125 166.527344 45.683594 166.070312 46.851562 C 165.613281 48.019531 165.03125 49.386719 164.773438 49.894531 L 164.308594 50.8125 L 166.269531 50.71875 C 167.429688 50.664062 168.527344 50.710938 168.953125 50.828125 C 169.351562 50.9375 169.703125 51.003906 169.734375 50.972656 C 169.769531 50.9375 169.578125 50.425781 169.3125 49.832031 C 169.050781 49.238281 168.476562 47.695312 168.042969 46.402344 C 167.410156 44.527344 167.21875 44.121094 167.078125 44.390625 M 373.40625 50.238281 C 362.945312 57.042969 355.722656 62.085938 347.75 68.152344 C 335.828125 77.21875 329.277344 83.101562 324.628906 88.910156 C 318.605469 96.4375 315.035156 103.15625 313.371094 110.109375 C 312.441406 113.980469 312.125 116.605469 311.777344 123.300781 L 311.734375 124.121094 L 310.546875 122.585938 C 308.960938 120.542969 306.1875 117.292969 304.679688 115.710938 C 304.007812 115.003906 303.054688 113.984375 302.558594 113.441406 C 300.980469 111.710938 296.359375 107.503906 293.554688 105.246094 C 288.925781 101.515625 284.296875 98.214844 284.046875 98.46875 C 283.996094 98.519531 284.652344 99.195312 285.507812 99.972656 C 286.363281 100.75 288.171875 102.589844 289.53125 104.066406 C 300.371094 115.832031 308.964844 129.769531 315.5 146.167969 C 317.335938 150.78125 318.542969 154.4375 320.550781 161.445312 C 321.300781 164.0625 321.992188 166.386719 322.085938 166.609375 C 322.253906 167 322.40625 166.914062 325.535156 164.683594 C 327.335938 163.402344 331.140625 160.789062 333.988281 158.878906 C 347.808594 149.617188 356.136719 143.457031 362.777344 137.589844 C 365.316406 135.347656 369.878906 130.820312 371.832031 128.605469 C 377.828125 121.808594 381.371094 115.703125 383.828125 107.933594 C 386.214844 100.386719 386.671875 90.546875 385.128906 79.851562 C 383.90625 71.382812 380.503906 58.859375 377.464844 51.636719 C 376.949219 50.40625 376.523438 49.332031 376.523438 49.246094 C 376.523438 49.164062 376.421875 48.964844 376.292969 48.804688 C 376.09375 48.542969 375.757812 48.710938 373.40625 50.238281 M 166.042969 58.945312 C 165.398438 59.863281 165.890625 61.285156 166.851562 61.285156 C 167.628906 61.285156 167.941406 61.117188 168.238281 60.539062 C 168.613281 59.816406 168.574219 59.507812 168.058594 58.988281 C 167.460938 58.394531 166.445312 58.371094 166.042969 58.945312 M 215.792969 59.089844 C 214.859375 60.019531 215.695312 61.453125 217.074219 61.296875 C 217.886719 61.203125 218.519531 59.507812 217.953125 58.941406 C 217.589844 58.578125 216.210938 58.671875 215.792969 59.089844 M 171.621094 66.386719 C 171.621094 66.824219 172.214844 67.480469 173.269531 68.21875 C 174.667969 69.199219 176.625 70.109375 177.160156 70.03125 C 177.542969 69.976562 177.480469 69.867188 176.449219 68.78125 C 175.824219 68.128906 174.875 67.328125 174.332031 67.003906 C 173.300781 66.378906 171.621094 66 171.621094 66.386719 M 182.269531 67.898438 C 182.160156 68.214844 182.070312 68.652344 182.070312 68.867188 C 182.070312 69.460938 181.175781 71.132812 180.792969 71.253906 C 180.609375 71.3125 178.777344 71.335938 176.726562 71.308594 C 173.203125 71.257812 172.941406 71.277344 171.960938 71.671875 C 167.53125 73.460938 166.007812 79.292969 168.957031 83.175781 C 170.554688 85.28125 172.648438 86.210938 175.839844 86.226562 C 178.941406 86.238281 180.816406 85.601562 182.445312 83.976562 C 183.320312 83.105469 184.101562 81.789062 184.34375 80.785156 C 184.570312 79.851562 184.472656 76.964844 184.183594 75.996094 C 184.03125 75.484375 183.636719 74.710938 183.308594 74.277344 C 182.097656 72.679688 182.160156 72.839844 182.570312 72.390625 C 183.589844 71.277344 184.5625 69.0625 184.367188 68.292969 C 184.257812 67.847656 183.421875 67.320312 182.828125 67.320312 C 182.59375 67.320312 182.402344 67.515625 182.269531 67.898438 M 165.519531 67.734375 C 165.472656 67.859375 165.472656 68.457031 165.523438 69.058594 C 165.605469 70.0625 165.574219 70.195312 165.144531 70.59375 C 164.777344 70.933594 164.367188 71.058594 163.246094 71.175781 C 162.460938 71.257812 161.800781 71.332031 161.78125 71.335938 C 161.761719 71.34375 161.757812 73.382812 161.777344 75.875 C 161.8125 80.757812 161.734375 81.242188 160.753906 82.292969 C 159.738281 83.382812 157.253906 83.953125 156.109375 83.363281 C 155.320312 82.953125 154.273438 81.734375 154.015625 80.917969 C 153.882812 80.492188 153.761719 78.476562 153.710938 75.78125 L 153.625 71.347656 L 150.316406 71.347656 L 150.40625 76.238281 C 150.484375 80.792969 150.523438 81.210938 150.914062 82.226562 C 151.441406 83.589844 152.804688 85.070312 154.003906 85.589844 C 156.378906 86.605469 160.175781 86.480469 162.234375 85.308594 C 163.332031 84.683594 164.394531 83.269531 164.835938 81.835938 C 165.160156 80.796875 165.207031 80.132812 165.207031 76.882812 L 165.207031 73.128906 L 166.015625 72.417969 C 167.0625 71.5 167.589844 70.410156 167.589844 69.171875 C 167.589844 67.796875 167.382812 67.503906 166.410156 67.503906 C 165.933594 67.503906 165.570312 67.597656 165.519531 67.734375 M 210.75 71.164062 C 207.671875 71.671875 205.585938 73.113281 204.460938 75.523438 C 204.03125 76.4375 203.972656 76.789062 203.972656 78.480469 C 203.96875 81.152344 204.417969 82.328125 206.070312 83.984375 C 207.4375 85.359375 208.527344 85.867188 210.769531 86.179688 C 213.4375 86.546875 216.335938 85.761719 217.78125 84.269531 C 218.320312 83.714844 218.40625 83.492188 218.476562 82.476562 C 218.523438 81.839844 218.492188 80.65625 218.410156 79.851562 L 218.265625 78.390625 L 217.023438 78.390625 C 215.648438 78.390625 215.339844 78.597656 215.523438 79.394531 C 216.039062 81.644531 215.730469 82.675781 214.363281 83.28125 C 213.195312 83.796875 211.179688 83.78125 210.132812 83.25 C 209.183594 82.765625 208.210938 81.796875 207.6875 80.808594 C 207.117188 79.730469 207.109375 77.609375 207.671875 76.550781 C 208.289062 75.386719 209.554688 74.339844 210.769531 73.984375 C 212.171875 73.578125 214.230469 73.75 215.480469 74.375 C 216.644531 74.957031 216.917969 74.9375 217.453125 74.234375 C 218.675781 72.628906 218.652344 72.410156 217.210938 71.9375 C 215.113281 71.25 212.289062 70.910156 210.75 71.164062 M 187.429688 71.367188 C 187.253906 71.546875 187.199219 73.191406 187.199219 78.3125 C 187.199219 82 187.253906 85.277344 187.316406 85.59375 C 187.429688 86.164062 187.429688 86.164062 188.644531 86.160156 C 190.808594 86.15625 190.617188 86.640625 190.53125 81.398438 C 190.445312 76.21875 190.46875 76.140625 191.722656 77.703125 C 195.363281 82.234375 198.304688 85.449219 199.183594 85.867188 C 199.527344 86.03125 200.265625 86.164062 200.820312 86.164062 L 201.832031 86.164062 L 201.8125 78.753906 L 201.792969 71.347656 L 198.507812 71.347656 L 198.636719 75.691406 C 198.707031 78.082031 198.808594 80.222656 198.867188 80.449219 C 199.113281 81.425781 198.339844 80.675781 194.949219 76.652344 C 194.226562 75.796875 192.824219 74.238281 191.828125 73.1875 L 190.019531 71.277344 L 188.839844 71.203125 C 188.035156 71.15625 187.585938 71.207031 187.429688 71.367188 M 296.210938 71.515625 C 294.035156 72.210938 292.417969 73.589844 291.515625 75.523438 C 291.125 76.355469 291.015625 76.894531 290.964844 78.269531 C 290.90625 79.769531 290.957031 80.144531 291.394531 81.34375 C 292.25 83.679688 294.21875 85.375 296.800781 85.996094 C 299.019531 86.53125 303.617188 86.101562 304.433594 85.285156 C 305.003906 84.71875 304.378906 82.503906 303.652344 82.503906 C 303.496094 82.503906 302.777344 82.765625 302.054688 83.085938 C 300.386719 83.820312 298.445312 83.898438 297.246094 83.28125 C 296.339844 82.816406 295.257812 81.65625 294.878906 80.746094 C 294.171875 79.0625 294.347656 77.339844 295.382812 75.804688 C 296.828125 73.65625 299.621094 73.140625 302.570312 74.480469 C 303.75 75.015625 304.035156 74.941406 304.394531 74.003906 C 304.820312 72.886719 304.71875 72.234375 304.066406 71.925781 C 302.488281 71.171875 298.019531 70.941406 296.210938 71.515625 M 118.410156 72.125 C 118.710938 74.035156 118.695312 74.023438 121.816406 74.210938 L 123.789062 74.328125 L 123.789062 86.164062 L 126.902344 86.164062 L 126.902344 74.101562 L 129.425781 74.050781 L 131.945312 74 L 131.996094 72.671875 L 132.050781 71.347656 L 118.285156 71.347656 L 118.410156 72.125 M 134.417969 78.730469 L 134.417969 86.164062 L 138.074219 86.164062 L 138.125 83.558594 L 138.175781 80.949219 L 138.679688 80.890625 C 138.960938 80.859375 139.621094 80.960938 140.148438 81.113281 C 141.070312 81.382812 141.171875 81.476562 142.632812 83.480469 C 143.472656 84.628906 144.371094 85.664062 144.628906 85.785156 C 145.230469 86.054688 147.980469 86.277344 147.980469 86.050781 C 147.980469 85.753906 147.03125 84.453125 146.058594 83.421875 C 145.539062 82.867188 144.957031 82.175781 144.765625 81.882812 L 144.417969 81.347656 L 145.128906 80.785156 C 147.1875 79.15625 147.695312 78.269531 147.699219 76.273438 C 147.703125 75.046875 147.640625 74.785156 147.152344 73.992188 C 146.515625 72.960938 145.34375 72.003906 144.355469 71.703125 C 143.96875 71.585938 141.667969 71.453125 139.046875 71.394531 L 134.417969 71.300781 L 134.417969 78.730469 M 229.078125 78.710938 L 229.078125 86.074219 L 231.738281 86.128906 C 236.535156 86.234375 239.628906 85.707031 241.078125 84.546875 C 242.800781 83.164062 243.652344 81.277344 243.648438 78.835938 C 243.640625 74.714844 241.355469 72.046875 237.390625 71.53125 C 236.648438 71.4375 234.476562 71.355469 232.558594 71.351562 L 229.078125 71.347656 L 229.078125 78.710938 M 246.214844 75.148438 C 246.214844 79.472656 246.433594 81.683594 246.96875 82.730469 C 247.53125 83.828125 248.710938 85.003906 249.761719 85.519531 C 251.75 86.488281 255.242188 86.523438 257.402344 85.59375 C 258.46875 85.136719 259.710938 83.863281 260.335938 82.597656 C 260.777344 81.699219 260.785156 81.574219 260.84375 76.515625 L 260.898438 71.347656 L 259.191406 71.34375 L 257.488281 71.34375 L 257.539062 75.738281 C 257.570312 78.433594 257.515625 80.410156 257.398438 80.855469 C 256.769531 83.175781 253.570312 84.382812 251.503906 83.074219 C 250.519531 82.453125 249.992188 81.769531 249.722656 80.765625 C 249.617188 80.363281 249.472656 78.082031 249.402344 75.691406 L 249.273438 71.347656 L 246.214844 71.347656 L 246.214844 75.148438 M 270.589844 71.667969 C 270.589844 71.84375 270.5625 75.175781 270.53125 79.074219 L 270.472656 86.164062 L 282.320312 86.164062 L 282.320312 83.238281 L 278.21875 83.238281 C 274.121094 83.238281 274.117188 83.238281 274.003906 82.824219 C 273.945312 82.597656 273.894531 79.921875 273.894531 76.878906 L 273.890625 71.347656 L 272.242188 71.347656 C 270.792969 71.347656 270.589844 71.386719 270.589844 71.667969 M 284.886719 78.753906 L 284.886719 86.164062 L 285.6875 86.164062 C 286.125 86.164062 286.867188 86.214844 287.335938 86.28125 L 288.183594 86.398438 L 288.183594 71.347656 L 284.886719 71.347656 L 284.886719 78.753906 M 307.613281 78.464844 C 307.613281 82.382812 307.664062 85.714844 307.722656 85.875 C 307.8125 86.109375 308.148438 86.164062 309.464844 86.164062 L 311.09375 86.164062 L 311.09375 80.128906 L 318.976562 80.128906 L 318.976562 86.164062 L 322.273438 86.164062 L 322.273438 71.347656 L 318.753906 71.347656 L 318.820312 74.277344 L 318.882812 77.207031 L 315.035156 77.15625 L 311.1875 77.109375 L 311.136719 74.339844 C 311.078125 71.136719 311.238281 71.351562 308.941406 71.347656 L 307.613281 71.347656 L 307.613281 78.464844 M 174.644531 73.894531 C 172.417969 74.441406 171.046875 76.148438 171.03125 78.390625 C 171.023438 80.433594 171.867188 82.085938 173.421875 83.074219 C 174.171875 83.546875 174.417969 83.601562 175.738281 83.597656 C 177.453125 83.59375 178.320312 83.273438 179.492188 82.21875 C 180.671875 81.15625 181.238281 80.054688 181.230469 78.847656 C 181.210938 75.597656 177.894531 73.101562 174.644531 73.894531 M 137.980469 74.105469 C 137.914062 74.214844 137.917969 75.335938 137.988281 76.59375 L 138.121094 78.882812 L 139.796875 78.765625 C 142.902344 78.546875 143.828125 78.183594 144.320312 77.003906 C 144.589844 76.351562 144.425781 75.378906 143.945312 74.769531 C 143.675781 74.425781 143.296875 74.261719 142.421875 74.109375 C 140.910156 73.847656 138.144531 73.84375 137.980469 74.105469 M 232.691406 78.539062 C 232.722656 81.433594 232.816406 83.292969 232.933594 83.40625 C 233.179688 83.652344 236.046875 83.34375 237.386719 82.929688 C 238.742188 82.511719 240.082031 81.285156 240.414062 80.160156 C 240.785156 78.886719 240.648438 77.335938 240.074219 76.359375 C 239.171875 74.820312 237.550781 74.105469 234.613281 73.957031 L 232.636719 73.855469 L 232.691406 78.539062 M 285.496094 88.683594 C 285.179688 88.886719 285.042969 89.65625 285.21875 90.28125 C 285.390625 90.90625 286.195312 91.273438 287.109375 91.140625 C 287.742188 91.046875 288 90.558594 288 89.46875 C 288 88.898438 287.925781 88.746094 287.589844 88.65625 C 287.015625 88.503906 285.753906 88.519531 285.496094 88.683594 M 323.832031 176.8125 C 323.878906 177.113281 323.96875 180.285156 324.035156 183.855469 C 324.320312 199.441406 323.25 210.082031 319.964844 224.285156 C 317.925781 233.101562 315.359375 240.734375 311.421875 249.714844 C 307.515625 258.617188 301.144531 268.910156 294.828125 276.515625 C 290.234375 282.046875 283.101562 288.960938 277.582031 293.226562 C 258.125 308.265625 234.726562 316.84375 208.589844 318.515625 C 204.820312 318.757812 195.164062 318.648438 191.691406 318.328125 C 178.519531 317.101562 169.890625 315.140625 157.144531 310.472656 C 156.285156 310.160156 154.84375 309.539062 153.9375 309.09375 C 153.03125 308.652344 152.253906 308.320312 152.21875 308.359375 C 152.101562 308.472656 157.015625 313.210938 160.003906 315.867188 C 166.753906 321.875 173.570312 326.445312 181.792969 330.488281 C 194.605469 336.785156 206.292969 339.539062 220.210938 339.539062 C 227.007812 339.539062 229.59375 339.320312 235.585938 338.238281 C 243.898438 336.734375 251.527344 334.199219 259.226562 330.375 C 278.761719 320.671875 295.003906 304.601562 307.300781 282.8125 C 310.894531 276.441406 315.222656 266.804688 317.679688 259.691406 C 319.648438 254 321.839844 246.082031 323.003906 240.476562 C 323.683594 237.203125 324.734375 230.921875 325.007812 228.492188 C 325.117188 227.539062 325.289062 226.054688 325.390625 225.203125 C 326.441406 216.398438 326.882812 206.398438 326.515625 199.679688 C 325.988281 190.089844 324.882812 180.160156 324.011719 177.179688 C 323.863281 176.675781 323.78125 176.511719 323.832031 176.8125 M 87.625 183.667969 C 87.28125 183.96875 86.765625 184.730469 86.472656 185.359375 C 85.996094 186.386719 85.941406 186.703125 85.941406 188.351562 C 85.941406 190.085938 85.976562 190.25 86.496094 191.09375 C 87.171875 192.183594 87.988281 192.761719 89.078125 192.925781 C 90.082031 193.074219 91.371094 192.742188 91.867188 192.207031 C 92.070312 191.988281 92.761719 190.539062 93.410156 188.976562 C 94.496094 186.367188 94.625 186.148438 95.03125 186.1875 C 95.273438 186.214844 95.707031 186.496094 96 186.8125 C 96.480469 187.339844 96.515625 187.472656 96.421875 188.378906 C 96.363281 188.953125 96.039062 189.964844 95.648438 190.796875 C 95.28125 191.582031 95.007812 192.371094 95.042969 192.554688 C 95.132812 193.011719 96.03125 193.28125 96.597656 193.023438 C 97.210938 192.746094 98.113281 190.773438 98.359375 189.171875 C 98.511719 188.203125 98.503906 187.652344 98.324219 186.859375 C 97.765625 184.359375 94.765625 182.828125 93.226562 184.261719 C 92.679688 184.773438 92.136719 185.816406 91.246094 188.078125 C 90.238281 190.628906 89.847656 191.0625 88.882812 190.695312 C 87.65625 190.222656 87.832031 186.757812 89.140625 185.59375 C 90.039062 184.796875 90.324219 183.640625 89.710938 183.3125 C 89.058594 182.964844 88.277344 183.097656 87.625 183.667969 M 162.128906 183.476562 C 160.871094 183.574219 160.804688 183.601562 161.039062 183.914062 C 161.207031 184.144531 161.761719 184.332031 162.792969 184.511719 C 163.621094 184.65625 164.671875 184.945312 165.121094 185.15625 C 166.265625 185.695312 168.320312 187.652344 168.972656 188.820312 L 169.515625 189.800781 L 169.515625 200.59375 L 159.8125 200.640625 C 152.171875 200.679688 150.082031 200.640625 149.964844 200.460938 C 149.882812 200.332031 149.816406 196.464844 149.816406 191.859375 L 149.8125 183.488281 L 141.105469 183.488281 C 135.636719 183.488281 132.402344 183.554688 132.402344 183.667969 C 132.402344 183.957031 133.148438 184.265625 134.429688 184.511719 C 135.097656 184.636719 136.015625 184.917969 136.472656 185.128906 C 138.195312 185.941406 140.4375 188.277344 140.824219 189.675781 C 140.949219 190.117188 141.015625 197.179688 141.015625 210.109375 L 141.015625 229.867188 L 145.367188 229.824219 L 149.722656 229.785156 L 149.8125 218.941406 L 149.90625 208.097656 L 159.617188 208.164062 C 164.960938 208.203125 169.394531 208.269531 169.46875 208.3125 C 169.542969 208.355469 169.605469 213.203125 169.605469 219.082031 L 169.605469 229.773438 L 178.21875 229.773438 L 178.21875 183.550781 L 173.683594 183.429688 C 168.710938 183.296875 164.207031 183.316406 162.128906 183.476562 M 207.039062 183.445312 C 204.628906 183.53125 204.816406 183.988281 207.46875 184.492188 C 208.242188 184.640625 209.253906 184.945312 209.710938 185.164062 C 210.890625 185.734375 213.109375 187.898438 213.675781 189.027344 L 214.140625 189.964844 L 214.136719 200.769531 C 214.132812 206.710938 214.054688 212.167969 213.960938 212.894531 C 213.394531 217.238281 210.746094 220.984375 207.359375 222.222656 C 204.316406 223.339844 201.257812 222.65625 198.527344 220.253906 C 196.882812 218.804688 195.394531 216.300781 194.863281 214.085938 C 194.71875 213.496094 194.617188 208.496094 194.546875 198.398438 L 194.441406 183.582031 L 190.085938 183.53125 L 185.734375 183.484375 L 185.734375 197.582031 C 185.734375 206.300781 185.808594 212.355469 185.929688 213.453125 C 186.457031 218.277344 188.144531 221.890625 191.363281 225.074219 C 195.609375 229.277344 200.621094 231.089844 206.390625 230.503906 C 209.632812 230.171875 212.484375 229.027344 215.285156 226.929688 C 219.28125 223.933594 221.664062 219.914062 222.59375 214.589844 C 222.730469 213.796875 222.828125 208.414062 222.882812 198.476562 L 222.960938 183.550781 L 219.621094 183.429688 C 216.398438 183.3125 210.546875 183.316406 207.039062 183.445312 M 231.871094 183.410156 C 231.734375 183.550781 231.898438 229.636719 232.035156 229.730469 C 232.074219 229.753906 234 229.773438 236.316406 229.773438 L 240.535156 229.773438 L 240.535156 208.234375 L 241.09375 208.121094 C 241.402344 208.058594 245.855469 208.0625 250.992188 208.128906 L 260.328125 208.246094 L 260.328125 229.773438 L 268.882812 229.773438 L 269.003906 224.257812 C 269.070312 221.222656 269.125 210.820312 269.125 201.140625 L 269.125 183.539062 L 268.273438 183.421875 C 267.195312 183.277344 254.210938 183.3125 252.660156 183.464844 L 251.496094 183.582031 L 251.925781 183.96875 C 252.210938 184.222656 252.816406 184.425781 253.730469 184.566406 C 254.484375 184.683594 255.53125 184.988281 256.054688 185.242188 C 257.152344 185.773438 259.402344 187.929688 259.859375 188.886719 C 260.25 189.714844 260.4375 194.136719 260.242188 197.992188 L 260.105469 200.691406 L 250.367188 200.640625 L 240.625 200.59375 L 240.578125 192.042969 L 240.53125 183.488281 L 238.5625 183.488281 C 237.480469 183.488281 235.5625 183.4375 234.300781 183.375 C 233.042969 183.3125 231.949219 183.328125 231.871094 183.410156 M 272.195312 183.457031 C 271.917969 183.488281 271.691406 183.582031 271.691406 183.664062 C 271.691406 184.007812 272.328125 184.277344 273.71875 184.519531 C 274.53125 184.660156 275.519531 184.941406 275.914062 185.140625 C 276.917969 185.652344 278.882812 187.535156 279.589844 188.664062 C 280.75 190.519531 280.582031 190.441406 283.453125 190.441406 L 285.984375 190.441406 L 285.984375 229.761719 L 290.382812 229.8125 L 294.78125 229.867188 L 294.875 190.351562 L 301.152344 190.300781 L 307.429688 190.253906 L 307.429688 186.96875 C 307.429688 183.707031 307.425781 183.679688 307.015625 183.585938 C 306.570312 183.484375 273.027344 183.359375 272.195312 183.457031 M 342.066406 183.730469 C 342.066406 184.21875 342.527344 186.0625 342.726562 186.371094 C 343.015625 186.820312 346.550781 188.667969 347.519531 188.878906 C 347.84375 188.949219 348.152344 189.070312 348.199219 189.148438 C 348.25 189.226562 347.164062 190.019531 345.792969 190.917969 C 344.421875 191.8125 343.179688 192.730469 343.03125 192.957031 C 342.796875 193.3125 342.777344 194.242188 342.894531 199.589844 L 343.027344 205.808594 L 345.933594 205.808594 L 345.808594 203.980469 L 345.679688 202.148438 L 347.265625 202.128906 C 348.136719 202.113281 348.933594 202.085938 349.03125 202.058594 C 349.132812 202.035156 350.617188 202.003906 352.332031 201.992188 L 355.445312 201.96875 L 355.445312 199.183594 L 350.910156 199.226562 C 348.417969 199.25 346.234375 199.261719 346.0625 199.246094 C 345.796875 199.226562 345.738281 198.980469 345.695312 197.621094 L 345.640625 196.023438 L 344.304688 195.929688 C 342.65625 195.816406 342.691406 195.742188 345.183594 194.050781 C 346.140625 193.402344 347.585938 192.417969 348.390625 191.867188 C 350.4375 190.460938 350.402344 190.476562 352.714844 190.257812 C 353.941406 190.140625 354.851562 189.972656 354.933594 189.839844 C 355.183594 189.449219 355.089844 188.285156 354.789062 187.980469 C 354.59375 187.785156 354.300781 187.71875 353.917969 187.777344 C 351.335938 188.175781 350.96875 188.136719 349.175781 187.285156 C 348.238281 186.839844 346.363281 185.84375 345.007812 185.074219 C 342.871094 183.863281 342.066406 183.496094 342.066406 183.730469 M 89.476562 194.34375 C 88.441406 194.636719 87.296875 195.402344 86.5625 196.285156 C 85.429688 197.652344 84.992188 200.476562 85.589844 202.527344 C 85.953125 203.773438 86.203125 204.027344 87.078125 204.070312 C 88.511719 204.140625 88.734375 203.601562 87.960938 201.941406 C 87.417969 200.777344 87.382812 199.769531 87.847656 198.765625 C 88.75 196.816406 91.050781 195.972656 93.09375 196.847656 C 94.121094 197.285156 94.800781 197.796875 95.238281 198.457031 C 95.722656 199.195312 95.664062 201.023438 95.101562 202.605469 C 94.851562 203.3125 94.648438 203.949219 94.648438 204.027344 C 94.644531 204.261719 96.789062 204.179688 96.988281 203.933594 C 97.316406 203.535156 97.769531 201.738281 97.878906 200.414062 C 98.078125 198.011719 96.859375 195.980469 94.546875 194.84375 C 93.539062 194.347656 93.0625 194.230469 91.832031 194.171875 C 90.929688 194.128906 90 194.199219 89.476562 194.34375 M 87.425781 206.3125 L 85.246094 206.371094 L 85.359375 207.5625 C 85.421875 208.214844 85.519531 208.828125 85.574219 208.917969 C 85.636719 209.015625 86.667969 209.042969 88.027344 208.984375 L 90.375 208.878906 L 90.496094 210.296875 C 90.5625 211.078125 90.617188 212.320312 90.617188 213.058594 L 90.617188 214.398438 L 88.09375 214.449219 L 85.574219 214.5 L 85.621094 215.230469 C 85.648438 215.632812 85.714844 216.238281 85.769531 216.570312 L 85.871094 217.179688 L 91.679688 217.058594 C 94.875 216.996094 97.589844 216.910156 97.71875 216.867188 C 97.871094 216.820312 97.945312 216.398438 97.945312 215.601562 L 97.945312 214.40625 L 95.882812 214.40625 C 92.722656 214.402344 92.980469 214.664062 93.039062 211.503906 L 93.089844 208.828125 L 95.378906 208.734375 L 97.671875 208.644531 L 97.78125 206.175781 L 93.691406 206.214844 C 91.445312 206.234375 88.625 206.28125 87.425781 206.3125 M 342.839844 208.507812 L 342.894531 209.742188 L 344.449219 209.859375 C 345.308594 209.925781 348.132812 210.023438 350.726562 210.078125 L 355.445312 210.175781 L 355.445312 207.511719 L 353.496094 207.390625 C 352.421875 207.328125 349.570312 207.273438 347.164062 207.273438 L 342.785156 207.273438 L 342.839844 208.507812 M 349.949219 212.144531 C 348.945312 212.558594 348.367188 213.585938 347.476562 216.535156 C 346.765625 218.882812 346.460938 219.324219 345.835938 218.914062 C 345.160156 218.46875 344.738281 217.515625 344.753906 216.480469 C 344.765625 215.691406 344.902344 215.292969 345.523438 214.265625 C 345.941406 213.578125 346.285156 212.875 346.285156 212.707031 C 346.285156 212.332031 345.691406 212.167969 344.617188 212.246094 C 343.828125 212.300781 343.796875 212.332031 343.265625 213.390625 C 342.800781 214.320312 342.710938 214.738281 342.648438 216.234375 C 342.570312 218.167969 342.746094 218.824219 343.621094 219.859375 C 344.359375 220.730469 345.269531 221.121094 346.425781 221.054688 C 348.265625 220.949219 348.699219 220.472656 349.792969 217.371094 C 350.433594 215.5625 350.730469 214.933594 351.148438 214.515625 C 351.574219 214.09375 351.921875 214.15625 352.527344 214.757812 C 353.414062 215.644531 353.238281 217.308594 352.050781 219.277344 C 351.332031 220.46875 351.25 221.152344 351.769531 221.625 C 352.078125 221.902344 352.214844 221.914062 352.796875 221.722656 C 353.304688 221.554688 353.632812 221.242188 354.171875 220.414062 C 355.027344 219.089844 355.335938 217.75 355.222656 215.824219 C 355.152344 214.613281 355.058594 214.277344 354.605469 213.640625 C 353.738281 212.417969 353.304688 212.191406 351.671875 212.109375 C 350.875 212.066406 350.101562 212.085938 349.949219 212.144531 M 114.15625 212.960938 C 114.292969 213.644531 114.761719 218.402344 114.898438 220.445312 C 115.3125 226.78125 116.671875 236.09375 117.847656 240.628906 C 118.433594 242.890625 120.238281 245.898438 122.921875 249.074219 C 129.597656 256.984375 140.667969 263.683594 155.769531 268.957031 C 169.464844 273.742188 184.621094 276.757812 198.902344 277.539062 C 203.273438 277.78125 217.644531 277.660156 221.472656 277.351562 C 241.429688 275.746094 261.136719 270.632812 276.914062 262.960938 C 283.15625 259.925781 290.0625 255.71875 294.691406 252.121094 C 300.527344 247.589844 305.914062 242.585938 309.414062 238.441406 C 309.480469 238.363281 309.042969 238.710938 308.4375 239.214844 C 304.773438 242.273438 300.707031 245.15625 297.164062 247.210938 C 295.085938 248.417969 288.894531 251.429688 285.710938 252.789062 C 271.664062 258.769531 254.117188 263.089844 236.136719 264.992188 C 226.148438 266.046875 218.636719 266.351562 210.5 266.019531 C 207.414062 265.894531 204.308594 265.71875 203.605469 265.628906 C 202.898438 265.539062 200.878906 265.292969 199.113281 265.078125 C 187.496094 263.679688 175.480469 260.863281 165.023438 257.089844 C 160.011719 255.277344 153.019531 252.054688 148.53125 249.484375 C 144.449219 247.144531 138.15625 242.777344 135.464844 240.414062 C 129.585938 235.246094 125.460938 230.710938 121.457031 225.019531 C 119.496094 222.226562 118.210938 220.09375 116.160156 216.238281 C 114.226562 212.605469 114.015625 212.257812 114.15625 212.960938 M 91.09375 218.808594 C 89.621094 219.035156 88.535156 219.597656 87.777344 220.523438 C 85.878906 222.832031 85.691406 226.261719 87.320312 228.71875 C 88.707031 230.808594 90.605469 231.433594 93.808594 230.859375 C 96.121094 230.445312 97.199219 229.648438 98.164062 227.632812 C 99.234375 225.390625 98.792969 222.523438 97.085938 220.625 C 95.597656 218.972656 93.710938 218.402344 91.09375 218.808594 M 91.089844 221.179688 C 89.46875 221.8125 88.429688 223.210938 88.421875 224.777344 C 88.414062 225.6875 88.636719 226.332031 89.269531 227.253906 C 90.546875 229.101562 94.019531 229.179688 95.636719 227.394531 C 97.472656 225.363281 96.757812 222.636719 94.035156 221.308594 C 92.847656 220.726562 92.3125 220.703125 91.089844 221.179688 M 345.074219 223.015625 C 344.332031 223.167969 343.902344 223.429688 343.222656 224.136719 C 342.289062 225.101562 342.0625 225.988281 341.535156 230.691406 C 341.453125 231.445312 341.402344 232.085938 341.425781 232.113281 C 341.496094 232.199219 345.664062 232.675781 348.023438 232.867188 C 349.234375 232.96875 350.988281 233.148438 351.921875 233.269531 C 352.851562 233.390625 353.675781 233.433594 353.75 233.355469 C 353.824219 233.285156 353.886719 232.714844 353.886719 232.09375 L 353.890625 230.964844 L 351.917969 230.710938 C 350.027344 230.472656 349.949219 230.445312 349.949219 230.019531 C 349.949219 228.9375 350.402344 228.40625 352.332031 227.214844 C 354.261719 226.023438 354.496094 225.75 354.800781 224.332031 C 354.921875 223.75 354.910156 223.738281 354.296875 223.738281 C 353.824219 223.738281 353.347656 223.972656 352.421875 224.652344 C 351.738281 225.15625 351.007812 225.566406 350.792969 225.566406 C 350.558594 225.566406 350.101562 225.210938 349.617188 224.652344 C 349.183594 224.148438 348.5625 223.597656 348.242188 223.425781 C 347.578125 223.074219 345.871094 222.851562 345.074219 223.015625 M 345.316406 225.484375 C 344.25 226.550781 343.691406 229.039062 344.355469 229.773438 C 344.792969 230.253906 346.511719 230.628906 347.082031 230.367188 C 347.863281 230.011719 348.199219 227.652344 347.652344 226.34375 C 347.0625 224.9375 346.1875 224.617188 345.316406 225.484375 M 92.492188 232.242188 C 91.011719 232.65625 90.191406 233.148438 89.265625 234.175781 C 87.488281 236.152344 87.351562 239.515625 88.953125 241.988281 C 90.238281 243.976562 92.308594 244.84375 94.871094 244.472656 C 97.289062 244.125 98.890625 243.050781 99.871094 241.117188 C 100.8125 239.261719 100.820312 237.554688 99.886719 235.523438 C 98.664062 232.855469 95.425781 231.417969 92.492188 232.242188 M 341.082031 234.113281 C 341.027344 234.292969 340.902344 234.933594 340.800781 235.539062 C 340.703125 236.140625 340.410156 237.808594 340.152344 239.246094 C 339.894531 240.683594 339.683594 241.898438 339.683594 241.945312 C 339.683594 241.992188 339.910156 242.035156 340.1875 242.035156 C 340.464844 242.035156 341.4375 242.199219 342.34375 242.398438 C 345.105469 243 351.777344 244.109375 351.898438 243.988281 C 352.070312 243.816406 352.871094 238.867188 353 237.164062 L 353.113281 235.683594 L 352.132812 235.554688 C 350.925781 235.394531 350.777344 235.546875 350.601562 237.140625 C 350.453125 238.503906 349.988281 240.386719 349.726562 240.707031 C 349.484375 240.996094 348.257812 241.003906 347.96875 240.714844 C 347.671875 240.417969 347.691406 239.214844 348.023438 237.640625 C 348.304688 236.308594 348.242188 235.449219 347.867188 235.445312 C 347.753906 235.441406 347.355469 235.390625 346.988281 235.332031 C 346.125 235.1875 345.992188 235.429688 345.460938 238.089844 L 345.058594 240.109375 L 344.175781 240.0625 C 343.691406 240.039062 343.175781 239.917969 343.027344 239.796875 C 342.714844 239.539062 342.804688 238.578125 343.375 236.136719 C 343.578125 235.257812 343.699219 234.464844 343.640625 234.375 C 343.585938 234.28125 343.144531 234.152344 342.667969 234.085938 C 342.1875 234.015625 341.65625 233.921875 341.488281 233.871094 C 341.300781 233.820312 341.144531 233.910156 341.082031 234.113281 M 93.058594 234.503906 C 92.539062 234.683594 91.816406 235.054688 91.453125 235.332031 C 88.78125 237.367188 90.3125 241.988281 93.683594 242.054688 C 96.261719 242.109375 98.113281 240.472656 98.125 238.125 C 98.132812 236.484375 97.125 235.246094 95.191406 234.511719 C 94.097656 234.097656 94.234375 234.097656 93.058594 234.503906 M 339.222656 244.101562 C 338.96875 245.796875 338.945312 245.765625 342.160156 247.832031 C 343.773438 248.871094 345.566406 249.984375 346.144531 250.3125 C 346.722656 250.636719 347.195312 250.957031 347.199219 251.023438 C 347.199219 251.183594 343.933594 251.609375 341.058594 251.824219 C 340.457031 251.871094 339.671875 251.960938 339.320312 252.027344 C 338.964844 252.089844 338.488281 252.15625 338.253906 252.171875 C 337.757812 252.203125 337.554688 252.472656 337.292969 253.464844 C 337.183594 253.867188 337.054688 254.347656 337 254.53125 C 336.917969 254.8125 336.992188 254.847656 337.515625 254.765625 C 337.851562 254.714844 338.789062 254.625 339.59375 254.5625 C 340.398438 254.503906 341.824219 254.332031 342.757812 254.183594 C 343.691406 254.035156 345.457031 253.789062 346.6875 253.636719 C 347.914062 253.484375 349.128906 253.261719 349.386719 253.140625 C 349.949219 252.875 350.714844 251.453125 350.640625 250.8125 C 350.601562 250.445312 350 249.960938 347.5625 248.34375 C 344.691406 246.433594 339.648438 243.3125 339.4375 243.3125 C 339.386719 243.3125 339.289062 243.667969 339.222656 244.101562 M 100.054688 245.324219 C 99.75 245.402344 98.433594 245.691406 97.121094 245.964844 C 95.8125 246.238281 94.484375 246.535156 94.171875 246.628906 C 93.859375 246.722656 93.28125 246.839844 92.890625 246.886719 C 92.496094 246.9375 92.050781 247.015625 91.898438 247.058594 C 91.746094 247.105469 91.171875 247.191406 90.617188 247.253906 C 90.0625 247.3125 89.578125 247.398438 89.535156 247.441406 C 89.492188 247.484375 89.890625 249.214844 90.421875 251.289062 C 91.878906 256.972656 91.628906 256.359375 92.414062 256.214844 C 93.28125 256.054688 93.914062 255.648438 93.914062 255.242188 C 93.914062 255.070312 93.632812 253.898438 93.289062 252.640625 C 92.332031 249.140625 92.167969 249.546875 94.738281 249.054688 C 95.949219 248.820312 98.09375 248.394531 99.503906 248.101562 L 102.070312 247.574219 L 102.019531 246.820312 C 101.941406 245.585938 101.695312 245.140625 101.113281 245.160156 C 100.832031 245.167969 100.355469 245.242188 100.054688 245.324219 M 336.277344 257.136719 C 335.671875 258.582031 335.730469 258.671875 337.578125 259.132812 C 340.152344 259.78125 345.722656 261.234375 346.800781 261.542969 C 347.335938 261.699219 347.796875 261.796875 347.824219 261.761719 C 347.851562 261.726562 348.007812 261.203125 348.179688 260.601562 C 348.464844 259.570312 348.464844 259.488281 348.171875 259.273438 C 348.003906 259.148438 347.734375 259.046875 347.578125 259.042969 C 347.417969 259.042969 345.148438 258.5 342.527344 257.835938 C 336.242188 256.238281 336.636719 256.28125 336.277344 257.136719 M 100.238281 259.722656 C 97.554688 260.101562 95.699219 261.398438 94.671875 263.609375 C 93.820312 265.433594 94.199219 267.832031 95.671875 269.96875 C 96.898438 271.746094 99.25 272.78125 101.261719 272.425781 C 103.695312 272 105.726562 270.558594 106.589844 268.648438 C 107.238281 267.222656 107.171875 265.167969 106.4375 263.613281 C 105.132812 260.859375 102.757812 259.367188 100.238281 259.722656 M 335.109375 261.324219 C 334.890625 261.589844 334.324219 263.265625 334.421875 263.363281 C 334.574219 263.515625 339.785156 264.964844 340.878906 265.160156 L 342.160156 265.386719 L 341.242188 265.851562 C 340.738281 266.109375 338.882812 266.867188 337.121094 267.539062 C 335.355469 268.214844 333.609375 268.972656 333.238281 269.226562 C 332.671875 269.613281 331.988281 270.59375 331.988281 271.015625 C 331.988281 271.191406 332.695312 271.429688 336.9375 272.679688 C 339.105469 273.320312 341.488281 274.054688 342.238281 274.3125 C 342.984375 274.566406 343.671875 274.777344 343.757812 274.777344 C 343.976562 274.777344 344.625 273.320312 344.628906 272.824219 C 344.632812 272.398438 344.773438 272.453125 341.152344 271.480469 C 340.292969 271.25 339.058594 270.820312 338.402344 270.527344 L 337.210938 269.988281 L 340.648438 268.839844 C 344.945312 267.398438 345.96875 266.90625 346.664062 265.949219 C 347.621094 264.628906 347.789062 264.738281 342.433594 263.246094 C 341.679688 263.035156 339.804688 262.457031 338.265625 261.960938 C 336.730469 261.464844 335.441406 261.058594 335.402344 261.058594 C 335.363281 261.058594 335.234375 261.179688 335.109375 261.324219 M 99.816406 262.320312 C 97.941406 262.964844 96.664062 264.496094 96.664062 266.09375 C 96.664062 267.023438 97.429688 268.609375 98.117188 269.097656 C 98.914062 269.664062 100.21875 269.886719 101.355469 269.652344 C 103.648438 269.175781 105.046875 267.289062 104.652344 265.199219 C 104.425781 264 102.167969 261.976562 101.0625 261.984375 C 100.910156 261.984375 100.351562 262.136719 99.816406 262.320312 M 125.253906 265.332031 C 125.253906 265.636719 128.167969 272.164062 130.652344 277.429688 C 132.203125 280.714844 134.03125 283.863281 135.027344 284.957031 C 136.875 286.984375 140.628906 289.5 145.507812 291.980469 C 154.140625 296.367188 165.539062 299.648438 177.554688 301.210938 C 189.621094 302.777344 205.792969 302.996094 217.074219 301.75 C 224.753906 300.902344 232.785156 299.308594 241.082031 296.988281 C 254.160156 293.328125 265.953125 287.8125 273.707031 281.726562 C 275.695312 280.167969 280.820312 275.175781 281.597656 274.046875 L 282.039062 273.40625 L 281.492188 273.753906 C 281.191406 273.945312 280.65625 274.320312 280.304688 274.589844 C 275.933594 277.902344 265.226562 283 256.84375 285.761719 C 247.277344 288.914062 235.714844 291.035156 223.898438 291.800781 C 218.691406 292.140625 204.085938 291.929688 199.386719 291.449219 C 191.589844 290.65625 190.667969 290.542969 186.558594 289.871094 C 174.558594 287.910156 162.75 284.703125 152.5625 280.636719 C 143.070312 276.847656 132.5625 271.054688 126.582031 266.316406 C 125.851562 265.734375 125.253906 265.292969 125.253906 265.332031 M 107.203125 271.933594 C 106.496094 272.265625 105.152344 272.804688 104.214844 273.132812 C 100.957031 274.269531 97.695312 275.628906 97.511719 275.917969 C 97.300781 276.253906 97.785156 277.503906 98.308594 277.976562 C 98.59375 278.234375 98.710938 278.207031 99.613281 277.703125 C 100.675781 277.105469 102.46875 276.242188 102.644531 276.242188 C 102.703125 276.242188 102.703125 276.363281 102.648438 276.511719 C 102.589844 276.660156 102.742188 277.226562 102.984375 277.773438 C 103.226562 278.320312 103.554688 279.222656 103.71875 279.777344 C 104.109375 281.121094 104.242188 281.210938 105.464844 280.933594 C 106.421875 280.71875 106.46875 280.683594 106.445312 280.144531 C 106.425781 279.691406 105.867188 278.019531 105.007812 275.855469 C 104.859375 275.484375 106.402344 274.519531 106.890625 274.675781 C 107.316406 274.8125 107.753906 275.578125 108.664062 277.777344 C 109.074219 278.777344 109.542969 279.675781 109.699219 279.773438 C 109.90625 279.90625 110.195312 279.855469 110.703125 279.609375 C 111.3125 279.3125 111.414062 279.179688 111.390625 278.710938 C 111.351562 277.941406 108.917969 271.300781 108.679688 271.316406 C 108.574219 271.324219 107.90625 271.601562 107.203125 271.933594 M 330.992188 273.542969 C 330.855469 273.871094 330.691406 274.390625 330.625 274.703125 C 330.511719 275.238281 330.542969 275.277344 331.292969 275.5 C 332.464844 275.847656 336.445312 277.453125 337.675781 278.074219 C 339.039062 278.761719 339.207031 279.0625 338.96875 280.359375 C 338.75 281.539062 338.425781 282.210938 337.785156 282.808594 C 337.367188 283.199219 337.207031 283.234375 336.316406 283.128906 C 335.203125 283 332.972656 282.253906 330.390625 281.144531 C 329.007812 280.554688 328.628906 280.457031 328.410156 280.636719 C 328.109375 280.882812 327.542969 282.605469 327.6875 282.835938 C 327.804688 283.03125 333.066406 285.09375 334.441406 285.488281 C 335.933594 285.914062 337.621094 285.878906 338.550781 285.40625 C 340.328125 284.5 342.191406 280.871094 341.71875 279.230469 C 341.300781 277.769531 340.503906 276.753906 339.042969 275.816406 C 338.066406 275.191406 332.347656 272.949219 331.726562 272.949219 C 331.34375 272.949219 331.183594 273.082031 330.992188 273.542969 M 109.675781 286.277344 C 105.460938 288.292969 103.472656 289.324219 103.105469 289.679688 C 102.894531 289.882812 102.9375 290.0625 103.359375 290.78125 C 103.976562 291.832031 104.257812 291.957031 104.988281 291.511719 C 105.882812 290.964844 108.28125 289.78125 108.5 289.78125 C 108.609375 289.78125 109.058594 290.625 109.5 291.65625 C 109.9375 292.6875 110.457031 293.761719 110.652344 294.046875 C 110.851562 294.339844 110.933594 294.632812 110.84375 294.722656 C 110.625 294.9375 108.273438 296.078125 107.4375 296.375 C 107.0625 296.507812 106.722656 296.707031 106.679688 296.820312 C 106.589844 297.054688 107.0625 298.546875 107.335938 298.882812 C 107.644531 299.261719 108.03125 299.15625 110.132812 298.121094 C 111.242188 297.578125 113.613281 296.410156 115.402344 295.53125 C 117.191406 294.648438 118.65625 293.851562 118.65625 293.761719 C 118.65625 293.472656 118.261719 292.816406 117.773438 292.296875 C 117.300781 291.785156 116.855469 291.664062 116.539062 291.949219 C 116.222656 292.234375 113.53125 293.621094 113.296875 293.621094 C 113.167969 293.617188 112.621094 292.773438 112.078125 291.742188 C 111.535156 290.714844 110.96875 289.726562 110.8125 289.550781 C 110.5625 289.265625 110.566406 289.195312 110.839844 288.894531 C 111.007812 288.710938 111.972656 288.15625 112.984375 287.664062 C 115.128906 286.617188 115.304688 286.339844 114.550781 285.203125 C 114.285156 284.800781 113.925781 284.476562 113.75 284.476562 C 113.574219 284.480469 111.742188 285.289062 109.675781 286.277344 M 325.0625 287.996094 C 324.957031 288.125 324.691406 288.679688 324.476562 289.230469 C 324.261719 289.785156 323.472656 291.410156 322.726562 292.84375 L 321.371094 295.449219 L 322.875 296.125 C 323.703125 296.496094 326.21875 297.722656 328.46875 298.847656 L 332.554688 300.894531 L 334.207031 297.507812 C 336.160156 293.5 336.238281 293.226562 335.585938 292.796875 C 335.324219 292.628906 334.84375 292.476562 334.511719 292.460938 C 333.929688 292.433594 333.886719 292.484375 332.867188 294.433594 C 331.621094 296.808594 331.128906 297.378906 330.453125 297.210938 C 329.324219 296.929688 329.4375 295.625 330.8125 293.1875 C 331.261719 292.390625 331.605469 291.71875 331.578125 291.695312 C 331.253906 291.414062 329.546875 290.710938 329.402344 290.796875 C 329.300781 290.863281 328.820312 291.757812 328.335938 292.789062 C 327.136719 295.34375 326.679688 295.613281 325.453125 294.496094 C 325.066406 294.148438 325.0625 294.101562 325.324219 293.191406 C 325.476562 292.675781 325.96875 291.605469 326.421875 290.816406 C 326.875 290.03125 327.21875 289.25 327.1875 289.078125 C 327.152344 288.910156 326.707031 288.546875 326.1875 288.269531 C 325.457031 287.878906 325.210938 287.816406 325.0625 287.996094 M 320.191406 297.601562 C 319.378906 299.21875 319.347656 299.132812 321.035156 300.011719 C 323.261719 301.167969 325.375 302.46875 326.261719 303.226562 C 326.933594 303.804688 327.039062 303.992188 327.039062 304.617188 C 327.039062 305.539062 326.691406 306.367188 325.957031 307.207031 C 325 308.292969 324.59375 308.273438 322.03125 307.003906 C 320.804688 306.394531 319.101562 305.4375 318.25 304.882812 C 317.398438 304.324219 316.644531 303.867188 316.574219 303.867188 C 316.503906 303.867188 316.175781 304.289062 315.847656 304.800781 C 315.429688 305.449219 315.296875 305.8125 315.414062 305.984375 C 315.640625 306.320312 320.027344 309.058594 321.613281 309.855469 C 323.183594 310.648438 324.644531 310.828125 325.828125 310.378906 C 327.648438 309.683594 329.65625 306.671875 329.671875 304.617188 C 329.683594 302.90625 328.890625 301.789062 326.582031 300.261719 C 324.433594 298.84375 320.984375 296.730469 320.808594 296.730469 C 320.710938 296.730469 320.433594 297.125 320.191406 297.601562 M 115.816406 297.164062 C 113.742188 297.695312 111.902344 299.132812 111.027344 300.902344 C 110.597656 301.777344 110.511719 302.179688 110.511719 303.410156 C 110.507812 304.671875 110.582031 305.019531 111.054688 305.960938 C 111.769531 307.390625 113.164062 308.789062 114.53125 309.457031 C 116.140625 310.242188 117.574219 310.214844 119.261719 309.371094 C 120.808594 308.597656 122.300781 307.15625 122.964844 305.800781 C 123.40625 304.898438 123.457031 304.617188 123.382812 303.539062 C 123.261719 301.859375 122.539062 300.429688 121.070312 298.957031 C 119.351562 297.234375 117.726562 296.679688 115.816406 297.164062 M 115.257812 300.191406 C 112.6875 301.664062 112.140625 303.691406 113.726562 305.878906 C 115.007812 307.640625 117.425781 307.796875 119.390625 306.242188 C 120.703125 305.207031 121.296875 302.960938 120.554688 301.847656 C 120.050781 301.097656 119.144531 300.191406 118.621094 299.917969 C 117.765625 299.472656 116.308594 299.589844 115.257812 300.191406 M 313.808594 308.449219 L 313.128906 309.71875 L 313.675781 310.003906 C 314.597656 310.476562 316.695312 311.875 316.949219 312.179688 C 317.152344 312.421875 317.082031 312.582031 316.476562 313.242188 C 316.085938 313.671875 315.398438 314.574219 314.945312 315.25 C 314.371094 316.105469 314 316.480469 313.734375 316.484375 C 313.324219 316.488281 312.246094 315.777344 310.945312 314.640625 C 310.507812 314.261719 310.039062 313.992188 309.898438 314.046875 C 309.757812 314.101562 309.347656 314.511719 308.976562 314.957031 C 308.402344 315.660156 308.34375 315.8125 308.558594 316.066406 C 309.148438 316.78125 317.441406 322.863281 318.027344 323.011719 C 318.519531 323.140625 318.578125 323.089844 319.238281 321.9375 L 319.738281 321.074219 L 318.945312 320.523438 C 318.507812 320.21875 317.699219 319.660156 317.144531 319.277344 C 316.589844 318.894531 316.109375 318.445312 316.078125 318.277344 C 316.007812 317.902344 316.945312 316.414062 318.21875 314.886719 C 319.335938 313.546875 319.289062 313.542969 321.082031 315.207031 C 322.691406 316.703125 322.90625 316.738281 323.871094 315.671875 C 324.304688 315.199219 324.65625 314.742188 324.65625 314.664062 C 324.65625 314.585938 324.019531 314.085938 323.238281 313.550781 C 320.714844 311.832031 318.738281 310.398438 317.050781 309.070312 C 316.144531 308.359375 315.195312 307.640625 314.945312 307.480469 L 314.484375 307.179688 L 313.808594 308.449219 M 124.195312 308.167969 C 123.414062 308.507812 121.589844 310.328125 121.589844 310.773438 C 121.589844 310.960938 121.964844 312.304688 122.421875 313.753906 C 123.402344 316.851562 123.417969 317.40625 122.53125 317.660156 C 121.742188 317.882812 120.941406 317.476562 120.316406 316.53125 C 119.929688 315.945312 119.851562 315.566406 119.765625 313.835938 L 119.664062 311.824219 L 118.863281 311.863281 C 118.019531 311.898438 116.878906 312.527344 116.773438 313.015625 C 116.679688 313.429688 117.082031 315.011719 117.515625 315.957031 C 118.054688 317.121094 119.425781 318.875 120.195312 319.390625 C 121.34375 320.15625 122.214844 320.367188 123.042969 320.082031 C 123.890625 319.789062 125.089844 318.878906 125.636719 318.113281 C 125.957031 317.664062 126.003906 317.417969 125.902344 316.707031 C 125.734375 315.539062 125.402344 314.4375 124.757812 312.921875 C 123.910156 310.929688 123.878906 310.671875 124.429688 310.417969 C 125.742188 309.820312 127.449219 311.910156 128.011719 314.796875 C 128.140625 315.457031 128.328125 315.941406 128.457031 315.941406 C 128.875 315.941406 130.382812 314.652344 130.496094 314.199219 C 130.703125 313.375 128.730469 310.390625 126.890625 308.738281 C 125.855469 307.808594 125.292969 307.691406 124.195312 308.167969 M 131.484375 315.851562 C 131.019531 316.34375 129.417969 317.664062 125.34375 320.902344 C 123.933594 322.023438 122.710938 323.0625 122.625 323.207031 C 122.441406 323.519531 123.003906 324.183594 123.933594 324.753906 L 124.542969 325.132812 L 125.007812 324.699219 C 125.261719 324.460938 125.6875 323.902344 125.945312 323.460938 L 126.421875 322.65625 L 126.800781 323.144531 C 129.367188 326.460938 130.382812 327.199219 132.214844 327.066406 C 133.691406 326.957031 134.800781 326.25 135.824219 324.757812 C 136.769531 323.378906 136.832031 322.71875 136.15625 321.269531 C 135.714844 320.328125 134.1875 318.089844 133.453125 317.3125 C 133.261719 317.113281 132.898438 316.597656 132.644531 316.167969 C 132.390625 315.742188 132.125 315.390625 132.050781 315.390625 C 131.976562 315.390625 131.722656 315.597656 131.484375 315.851562 M 129.960938 320.382812 C 128.621094 321.628906 128.597656 322.019531 129.785156 323.28125 C 131.320312 324.921875 132.226562 325.070312 133.421875 323.875 C 133.871094 323.425781 134.050781 323.082031 134.050781 322.667969 C 134.050781 321.335938 132.550781 319.417969 131.511719 319.417969 C 131.148438 319.417969 130.699219 319.695312 129.960938 320.382812 M 138.503906 324.949219 C 138.121094 325.277344 137.105469 326.160156 136.25 326.917969 C 135.394531 327.675781 133.683594 329.140625 132.449219 330.175781 C 131.214844 331.210938 130.203125 332.1875 130.203125 332.347656 C 130.203125 332.613281 131.375 334.070312 131.695312 334.203125 C 131.90625 334.289062 138.082031 328.894531 139.902344 327.035156 L 140.890625 326.023438 L 140.207031 325.1875 C 139.832031 324.730469 139.449219 324.355469 139.359375 324.355469 C 139.269531 324.355469 138.882812 324.625 138.503906 324.949219 M 308.148438 325.03125 C 307.242188 325.847656 304.863281 328.878906 304.863281 329.21875 C 304.863281 329.515625 305.570312 330.027344 305.988281 330.027344 C 306.363281 330.027344 310.179688 325.761719 310.179688 325.34375 C 310.179688 325.023438 309.480469 324.371094 309.125 324.363281 C 309 324.359375 308.558594 324.660156 308.148438 325.03125 M 140.855469 328.09375 C 139.71875 329.601562 139.714844 329.566406 141.128906 330.25 C 141.816406 330.578125 142.40625 330.953125 142.441406 331.074219 C 142.480469 331.199219 140.996094 332.832031 139.152344 334.703125 C 137.304688 336.574219 135.765625 338.179688 135.734375 338.269531 C 135.632812 338.539062 137.039062 340.089844 137.382812 340.089844 C 137.558594 340.089844 139.160156 338.648438 140.9375 336.886719 C 142.726562 335.117188 144.316406 333.6875 144.5 333.6875 C 144.84375 333.6875 145.535156 334.40625 146.089844 335.339844 C 146.515625 336.058594 146.996094 336.03125 148.058594 335.222656 L 148.921875 334.566406 L 145.667969 331.242188 C 143.878906 329.417969 142.238281 327.734375 142.019531 327.5 L 141.625 327.078125 L 140.855469 328.09375 M 296.03125 330.390625 C 295.546875 330.894531 295.148438 331.453125 295.148438 331.632812 C 295.148438 331.8125 295.367188 332.777344 295.628906 333.78125 C 295.890625 334.785156 296.171875 335.976562 296.253906 336.429688 C 296.335938 336.882812 296.488281 337.484375 296.597656 337.761719 C 296.753906 338.164062 296.742188 338.292969 296.542969 338.371094 C 296.40625 338.421875 294.953125 338 293.316406 337.429688 C 289.988281 336.273438 289.445312 336.242188 288.523438 337.160156 C 288.238281 337.449219 288 337.757812 288 337.851562 C 288 338.050781 290.886719 341.324219 293.117188 343.65625 C 293.984375 344.5625 295.003906 345.652344 295.386719 346.082031 C 295.769531 346.507812 296.199219 346.859375 296.347656 346.859375 C 296.496094 346.859375 296.949219 346.519531 297.351562 346.101562 C 298.222656 345.207031 298.464844 345.640625 295.148438 342.140625 C 293.789062 340.699219 292.648438 339.449219 292.617188 339.359375 C 292.585938 339.265625 293.203125 339.472656 293.992188 339.8125 C 296.113281 340.730469 298.488281 341.375 299.117188 341.210938 C 299.851562 341.015625 299.859375 340.523438 299.179688 337.792969 C 298.863281 336.523438 298.65625 335.433594 298.71875 335.367188 C 298.933594 335.152344 299.460938 335.640625 301.261719 337.726562 C 302.257812 338.875 303.222656 339.839844 303.410156 339.871094 C 303.832031 339.945312 305.414062 339.039062 305.414062 338.726562 C 305.414062 338.601562 304.207031 337.191406 302.730469 335.589844 C 301.253906 333.988281 299.421875 331.960938 298.660156 331.078125 C 297.898438 330.199219 297.195312 329.480469 297.09375 329.480469 C 296.996094 329.480469 296.519531 329.890625 296.03125 330.390625 M 146.425781 340.328125 C 143.1875 342.078125 140.902344 343.421875 140.871094 343.59375 C 140.808594 343.921875 142.4375 345.210938 142.917969 345.210938 C 143.082031 345.210938 143.535156 344.921875 143.925781 344.570312 C 144.3125 344.21875 144.742188 343.929688 144.871094 343.929688 C 145.425781 343.929688 149.261719 347.125 149.261719 347.585938 C 149.261719 347.753906 149.023438 348.210938 148.730469 348.605469 C 148.238281 349.265625 148.214844 349.355469 148.449219 349.808594 C 148.785156 350.457031 150.207031 351.660156 150.40625 351.460938 C 150.617188 351.25 152.734375 344.980469 153.652344 341.847656 C 154.261719 339.757812 154.355469 339.25 154.164062 339.011719 C 153.660156 338.367188 152.453125 337.355469 152.195312 337.355469 C 152.042969 337.355469 149.445312 338.695312 146.425781 340.328125 M 286.324219 339.804688 C 285.140625 340.210938 283.25 341.492188 282.269531 342.554688 C 281.261719 343.640625 280.804688 344.605469 280.941406 345.339844 C 281.082031 346.085938 281.808594 347.222656 282.664062 348.03125 C 283.355469 348.6875 283.839844 348.6875 285.640625 348.046875 C 288.101562 347.171875 289.917969 346.660156 290.382812 346.714844 C 290.796875 346.761719 290.839844 346.847656 290.828125 347.546875 C 290.792969 349.21875 289.058594 350.496094 286.800781 350.507812 C 286.050781 350.515625 285.417969 350.609375 285.289062 350.738281 C 284.875 351.152344 285.035156 351.984375 285.636719 352.546875 C 286.335938 353.199219 287.09375 353.238281 288.6875 352.699219 C 290.800781 351.988281 293.5 349.257812 293.5 347.835938 C 293.5 346.335938 291.460938 343.929688 290.191406 343.933594 C 289.753906 343.933594 288.097656 344.523438 285.894531 345.464844 C 284.550781 346.039062 283.691406 346.082031 283.425781 345.589844 C 283.082031 344.945312 283.226562 344.488281 284.015625 343.746094 C 284.976562 342.84375 285.53125 342.574219 287.226562 342.191406 C 287.953125 342.023438 288.550781 341.800781 288.550781 341.691406 C 288.550781 341.394531 287.46875 339.769531 287.207031 339.667969 C 287.078125 339.621094 286.683594 339.679688 286.324219 339.804688 M 151.550781 340.246094 C 151.351562 340.433594 150.699219 340.777344 150.101562 341.011719 C 149.503906 341.246094 148.628906 341.78125 148.160156 342.195312 L 147.304688 342.953125 L 147.691406 343.4375 C 148.222656 344.105469 149.265625 344.847656 149.671875 344.847656 C 150.070312 344.847656 150.574219 343.78125 151.039062 341.949219 C 151.210938 341.277344 151.515625 340.542969 151.714844 340.316406 C 152.152344 339.820312 152.050781 339.777344 151.550781 340.246094 M 155.746094 346.992188 C 154.246094 349.277344 152.714844 351.535156 152.339844 352.007812 L 151.65625 352.871094 L 154.628906 354.773438 C 158.082031 356.988281 159.203125 357.652344 159.492188 357.652344 C 159.726562 357.652344 160.160156 357.027344 160.335938 356.445312 C 160.417969 356.171875 160.289062 355.898438 159.882812 355.472656 C 159.285156 354.851562 157.398438 353.574219 156.09375 352.917969 L 155.320312 352.527344 L 155.695312 351.859375 C 155.902344 351.492188 157.066406 349.714844 158.28125 347.910156 C 159.496094 346.105469 160.5 344.5 160.511719 344.339844 C 160.535156 344.03125 159.101562 342.832031 158.707031 342.832031 C 158.578125 342.832031 157.242188 344.703125 155.746094 346.992188 M 277.1875 346 C 276.636719 346.335938 276.15625 346.730469 276.128906 346.882812 C 276.097656 347.039062 276.464844 347.691406 276.941406 348.335938 C 277.417969 348.984375 278.296875 350.292969 278.894531 351.25 C 280.027344 353.0625 282.84375 357.101562 282.976562 357.101562 C 283.035156 357.101562 283.878906 356.535156 285.046875 355.703125 C 285.085938 355.675781 284.703125 355.09375 284.199219 354.410156 C 283.136719 352.96875 280.835938 349.515625 279.316406 347.085938 C 278.730469 346.15625 278.242188 345.394531 278.226562 345.394531 C 278.210938 345.394531 277.742188 345.667969 277.1875 346 M 166.007812 350.015625 C 165.078125 351.417969 160.992188 358.734375 160.992188 359 C 160.992188 359.148438 162.613281 360.03125 162.882812 360.03125 C 163.175781 360.03125 166.472656 354.59375 167.84375 351.855469 C 168.304688 350.929688 168.820312 350.097656 168.988281 350.003906 C 169.242188 349.859375 169.140625 349.714844 168.332031 349.078125 C 167.804688 348.660156 167.320312 348.324219 167.253906 348.324219 C 167.1875 348.324219 166.625 349.085938 166.007812 350.015625 M 272.660156 349.445312 C 272.035156 349.636719 270.714844 350.257812 269.726562 350.824219 C 268.742188 351.390625 267.480469 352.101562 266.925781 352.402344 C 266.371094 352.707031 265.894531 352.96875 265.867188 352.988281 C 265.84375 353.007812 266.089844 353.308594 266.417969 353.660156 C 266.945312 354.222656 268.695312 357.046875 271.148438 361.308594 C 272.328125 363.359375 272.335938 363.363281 273.132812 363.039062 C 273.5 362.890625 273.984375 362.558594 274.210938 362.304688 L 274.621094 361.839844 L 273.917969 360.890625 C 273.007812 359.660156 272.554688 358.78125 272.675781 358.464844 C 272.730469 358.328125 273.105469 358.046875 273.511719 357.839844 L 274.253906 357.464844 L 276.265625 358.472656 C 277.375 359.027344 278.453125 359.480469 278.664062 359.480469 C 279.125 359.480469 281.039062 358.601562 281.039062 358.386719 C 281.039062 358.167969 279.6875 357.417969 278.105469 356.757812 C 276.066406 355.90625 276.132812 356.015625 276.910156 354.886719 C 277.722656 353.707031 277.703125 353.1875 276.785156 351.660156 C 276.238281 350.75 274.804688 349.449219 274.070312 349.195312 C 273.917969 349.140625 273.28125 349.253906 272.660156 349.445312 M 169.460938 350.898438 C 169.148438 351.898438 169.1875 352.605469 169.566406 352.949219 C 169.742188 353.109375 170.425781 353.4375 171.078125 353.675781 C 171.730469 353.910156 172.25 354.183594 172.234375 354.277344 C 172.214844 354.371094 171.246094 356.261719 170.082031 358.476562 C 168.914062 360.6875 167.960938 362.605469 167.957031 362.730469 C 167.957031 363.007812 169.546875 364.054688 169.96875 364.054688 C 170.160156 364.054688 170.933594 362.691406 172.320312 359.894531 C 173.457031 357.605469 174.382812 355.628906 174.378906 355.503906 C 174.367188 355.121094 174.730469 355.242188 175.53125 355.886719 C 175.953125 356.226562 176.523438 356.648438 176.800781 356.824219 C 177.296875 357.140625 177.308594 357.136719 177.949219 356.574219 C 178.980469 355.671875 179.304688 355.824219 179.671875 357.382812 C 179.945312 358.554688 180.640625 363.421875 180.636719 364.160156 C 180.632812 364.472656 180.339844 365.5 179.980469 366.449219 L 179.324219 368.171875 L 179.703125 368.484375 C 180.109375 368.824219 181.1875 369.089844 181.570312 368.945312 C 181.699219 368.894531 181.917969 368.410156 182.054688 367.871094 C 182.515625 366.050781 183.054688 365.257812 184.988281 363.582031 C 185.988281 362.714844 187.570312 361.457031 188.5 360.789062 C 189.433594 360.117188 190.226562 359.472656 190.265625 359.355469 C 190.363281 359.066406 188.472656 358.484375 187.914062 358.628906 C 187.488281 358.738281 184.59375 360.960938 183.402344 362.09375 C 183.074219 362.402344 182.757812 362.605469 182.695312 362.542969 C 182.632812 362.484375 182.507812 361.769531 182.414062 360.957031 C 181.996094 357.214844 181.882812 356.597656 181.5625 356.332031 C 181.234375 356.058594 179.097656 354.9375 173.632812 352.179688 L 169.683594 350.1875 L 169.460938 350.898438 M 271.191406 352.484375 C 269.585938 353.535156 269.542969 353.757812 270.613281 355.398438 C 271.492188 356.746094 271.683594 356.792969 273.089844 355.992188 C 274.191406 355.363281 274.988281 354.445312 274.988281 353.816406 C 274.988281 353.273438 274.371094 352.28125 273.800781 351.90625 C 273.097656 351.449219 272.613281 351.554688 271.191406 352.484375 M 263.667969 353.847656 C 262.523438 354.296875 262.511719 354.136719 263.933594 356.976562 C 265.070312 359.25 266.007812 361.894531 266.007812 362.832031 C 266.007812 363.351562 265.878906 363.585938 265.355469 364.019531 C 264.714844 364.542969 263.191406 365.152344 262.511719 365.152344 C 261.542969 365.152344 260.335938 363.257812 258.21875 358.382812 C 257.488281 356.703125 257.382812 356.613281 256.601562 356.984375 C 256.25 357.152344 255.882812 357.285156 255.785156 357.285156 C 255.6875 357.285156 255.507812 357.40625 255.386719 357.550781 C 255.210938 357.761719 255.4375 358.386719 256.546875 360.746094 C 259.050781 366.074219 259.695312 366.902344 261.703125 367.351562 C 262.914062 367.621094 263.855469 367.460938 265.390625 366.726562 C 268.171875 365.398438 269.011719 363.199219 267.945312 360.066406 C 267.34375 358.304688 265.046875 353.449219 264.816406 353.460938 C 264.71875 353.464844 264.199219 353.640625 263.667969 353.847656 M 249.320312 359.460938 C 246.910156 360.230469 245.757812 361.199219 244.796875 363.261719 C 243.828125 365.339844 244.398438 368.011719 246.230469 369.996094 C 247.4375 371.300781 248.390625 371.78125 249.988281 371.882812 C 253.273438 372.09375 256.222656 370.097656 256.867188 367.238281 C 257.527344 364.277344 255.324219 360.203125 252.625 359.40625 C 251.386719 359.039062 250.601562 359.050781 249.320312 359.460938 M 198.628906 361.796875 C 197.679688 362.742188 191.1875 371.839844 191.160156 372.265625 C 191.140625 372.53125 192.140625 372.980469 192.804688 373.003906 C 193.015625 373.011719 193.429688 372.757812 193.722656 372.441406 C 194.015625 372.121094 194.5625 371.554688 194.933594 371.175781 L 195.613281 370.488281 L 197.304688 371.035156 C 198.238281 371.332031 199.308594 371.589844 199.6875 371.605469 C 200.246094 371.628906 200.398438 371.714844 200.484375 372.058594 C 200.542969 372.292969 200.539062 372.570312 200.480469 372.667969 C 200.417969 372.769531 200.46875 373.253906 200.597656 373.75 C 200.8125 374.589844 200.886719 374.671875 201.652344 374.933594 C 202.785156 375.320312 203.324219 375.304688 203.246094 374.886719 C 203.210938 374.707031 203.121094 374.070312 203.050781 373.46875 C 202.976562 372.871094 202.886719 372.214844 202.847656 372.011719 C 202.75 371.496094 202.484375 369.78125 202.136719 367.4375 C 201.695312 364.445312 201.484375 363.285156 201.277344 362.738281 C 200.914062 361.765625 199.25 361.175781 198.628906 361.796875 M 249.015625 361.875 C 247.3125 362.71875 246.589844 364.195312 246.933594 366.136719 C 247.269531 368.058594 248.542969 369.398438 250.242188 369.632812 C 254.171875 370.171875 256.082031 365.089844 252.921875 362.503906 C 251.570312 361.398438 250.371094 361.207031 249.015625 361.875 M 241.359375 361.984375 C 232.835938 363.332031 233.289062 363.203125 233.472656 364.207031 C 233.636719 365.089844 234.042969 365.703125 234.472656 365.703125 C 234.660156 365.703125 235.367188 365.53125 236.046875 365.320312 C 236.726562 365.113281 237.34375 365.007812 237.425781 365.09375 C 237.507812 365.175781 237.617188 365.664062 237.671875 366.175781 C 237.726562 366.6875 237.8125 367.222656 237.863281 367.363281 C 237.953125 367.628906 238.023438 368.082031 238.359375 370.457031 C 238.464844 371.207031 238.585938 371.878906 238.625 371.949219 C 238.667969 372.015625 238.75 372.636719 238.808594 373.324219 C 238.867188 374.011719 238.980469 374.640625 239.058594 374.726562 C 239.21875 374.890625 241.261719 374.566406 241.46875 374.34375 C 241.539062 374.269531 241.398438 373.097656 241.15625 371.738281 C 240.601562 368.625 240.167969 365.757812 240.167969 365.230469 C 240.167969 364.75 240.902344 364.429688 242.074219 364.402344 C 243.449219 364.371094 243.746094 364.203125 243.691406 363.492188 C 243.628906 362.726562 243.300781 361.667969 243.132812 361.699219 C 243.0625 361.710938 242.265625 361.839844 241.359375 361.984375 M 206.539062 363.1875 C 206.171875 364.253906 205.746094 368.9375 205.695312 372.46875 C 205.640625 375.894531 205.527344 375.582031 206.8125 375.582031 L 207.910156 375.582031 L 207.910156 374.265625 C 207.910156 373.542969 207.992188 372.246094 208.089844 371.386719 C 208.1875 370.523438 208.316406 369.34375 208.378906 368.765625 C 208.4375 368.1875 208.550781 367.714844 208.628906 367.714844 C 208.707031 367.714844 208.925781 368.0625 209.113281 368.492188 C 209.296875 368.917969 210.15625 370.457031 211.019531 371.90625 C 212.789062 374.890625 214.316406 376.675781 215.097656 376.675781 C 215.664062 376.675781 215.765625 376.558594 215.882812 375.730469 C 216.214844 373.441406 216.890625 366.136719 216.890625 364.832031 L 216.890625 364.039062 L 215.683594 364.09375 L 214.476562 364.144531 L 214.429688 365.152344 C 214.234375 369.253906 214.066406 371.582031 213.960938 371.648438 C 213.890625 371.691406 213.066406 370.472656 212.125 368.941406 C 209.25 364.25 208.140625 362.957031 206.996094 362.957031 C 206.789062 362.957031 206.582031 363.058594 206.539062 363.1875 M 218.78125 369.773438 C 218.847656 372.917969 218.953125 375.683594 219.023438 375.921875 L 219.144531 376.359375 L 222.003906 376.261719 C 223.578125 376.207031 225.195312 376.0625 225.597656 375.941406 C 227.910156 375.246094 229.445312 372.90625 229.433594 370.09375 C 229.429688 368.929688 229.339844 368.535156 228.84375 367.503906 C 227.558594 364.851562 225.679688 364.054688 220.699219 364.054688 L 218.667969 364.054688 L 218.78125 369.773438 M 198.621094 365.628906 C 197.578125 367.042969 196.546875 368.632812 196.546875 368.832031 C 196.546875 369.023438 198.261719 369.359375 199.242188 369.359375 L 200.082031 369.359375 L 199.957031 367.378906 C 199.886719 366.285156 199.769531 365.164062 199.695312 364.878906 C 199.558594 364.371094 199.550781 364.375 198.621094 365.628906 M 221.105469 369.777344 C 221.105469 374.203125 221.113281 374.214844 222.980469 374.058594 C 224.625 373.921875 225.726562 373.386719 226.414062 372.386719 C 227.542969 370.75 227.300781 368.765625 225.796875 367.382812 C 224.925781 366.582031 223.847656 366.25 222.105469 366.25 L 221.105469 366.25 L 221.105469 369.777344 "/>
</g>
</svg>
